<svg version="1.2" xmlns="http://www.w3.org/2000/svg" viewBox="0 0 512 512" width="512" height="512">
	<title>approved-accept-icon-svg</title>
	<style>
		.s0 { fill: #0f77aa } 
	</style>
	<path id="Layer" fill-rule="evenodd" class="s0" d="m256 0c70.7 0 134.7 28.7 181 75 46.3 46.3 75 110.3 75 181 0 70.7-28.7 134.7-75 181-46.3 46.4-110.3 75-181 75-70.7 0-134.7-28.6-181-75-46.3-46.3-75-110.3-75-181 0-70.7 28.7-134.7 75-181 46.3-46.3 110.3-75 181-75zm155.4 100.6c-39.8-39.8-94.7-64.4-155.4-64.4-60.7 0-115.6 24.6-155.4 64.4-39.7 39.8-64.3 94.7-64.3 155.4 0 60.7 24.6 115.6 64.3 155.4 39.8 39.7 94.7 64.3 155.4 64.3 60.7 0 115.6-24.6 155.4-64.3 39.7-39.8 64.3-94.7 64.3-155.4 0-60.7-24.6-115.6-64.3-155.4zm-244.9 136.4c18 10.3 29.7 19 43.6 34.3 36.2-58.2 75.4-90.5 126.5-136.3l4.9-1.9h55.9c-74.9 83.2-132.9 151.8-185 252.1-27-57.9-51.2-97.8-105.1-134.8z"/>
</svg>