<svg version="1.2" xmlns="http://www.w3.org/2000/svg" viewBox="0 0 512 426" width="512" height="426">
	<title>cloud-file-download-icon-svg</title>
	<style>
		.s0 { fill: #0f77aa } 
	</style>
	<path id="Layer" fill-rule="evenodd" class="s0" d="m256 196c63.3 0 114.6 51.3 114.6 114.6 0 63.4-51.3 114.7-114.6 114.7-63.3 0-114.7-51.3-114.7-114.7 0-63.3 51.4-114.6 114.7-114.6zm103.8-71.3c-3.1 1.5-6.3 3.3-9.4 5-9.4 5.5-18.7 12.3-28.1 20l-20.2-23.1c7-6.5 14.5-12.3 22.5-17.5 6.4-4.2 13.1-7.9 19.9-11.1 2.8-1.4 5.5-2.7 8.4-3.9-13.3-23.5-32.5-40.4-54.1-50.8-43.1-20.6-96.7-16.1-134.6 13.3-21.8 16.9-38.4 42.2-44.7 75.6l-2 10.5-10.5 1.8q-15.3 2.7-27.3 7.4-11.6 4.5-20.7 11.1c-4.8 3.5-9 7.4-12.5 11.6-11 13.2-16.1 29.6-16 46.3 0.2 16.9 5.7 34 15.8 48 3.8 5.2 8.2 10 13.2 14.2 5.1 4.2 10.8 7.7 17.2 10.3 6.4 2.6 13.4 4.5 21.2 5.6h11.4q-0.5 5.8-0.5 11.6 0 9.7 1.2 19.1h-12.6l-1.9-0.2c-11.1-1.4-21.2-4.1-30.4-7.8-9.4-4-17.8-9-25.2-15.2-7-5.8-13.1-12.4-18.3-19.6-13.9-19.2-21.4-42.6-21.6-66-0.2-23.5 7.2-47 23-66 5.1-6.2 11.2-11.8 18.1-16.8 8-5.9 17.2-10.8 27.7-14.8 7.1-2.8 14.8-5.1 22.9-7 9.1-36.4 28.7-64.5 53.8-83.9 47.1-36.5 113.1-42.3 166.5-16.6 29.2 14 54.7 37.4 71.3 70.2 6.7-1 13.3-1.5 19.9-1.5 69.3 0.6 109.5 59.6 108.8 124.1-0.3 26.3-7.4 52.4-21.9 71.7-9.4 12.5-21.6 22.8-36.1 30.9-14 7.8-30.3 13.8-48.7 18.1l-3.3 0.4q0.5-3.9 0.8-7.8 0.3-3.9 0.4-7.9 0.1-3.9-0.1-7.8-0.1-3.9-0.4-7.8c13.7-3.5 25.8-8.1 36.3-13.9 10.9-6.1 19.9-13.6 26.6-22.5 10.4-13.9 15.5-33.5 15.7-53.7 0.6-47.2-26.5-92.8-78.3-93.2-14.3-0.1-29.1 3.4-43.2 9.6zm-78.4 178.6v-32.2c0-5.9-4.8-10.6-10.6-10.6h-29.6c-5.8 0-10.6 4.8-10.6 10.6v32.2h-22.2q-5.4 0.2-7.7 3.6c-3.7 5.6 0.7 11.1 4.3 15.2 10.4 11.6 38.4 41.7 44 48.2 4.1 4.5 9.9 4.5 14 0 5.3-6.3 32.1-35.1 43-47.1 3.8-4.2 9.4-10.2 5.3-16.3q-2.2-3.4-7.7-3.6z"/>
</svg>