<svg version="1.2" xmlns="http://www.w3.org/2000/svg" viewBox="0 0 123 92" width="123" height="92">
	<title>process-icon-svg</title>
	<style>
		.s0 { fill: #0f77aa } 
	</style>
	<path id="Layer" fill-rule="evenodd" class="s0" d="m2.2 38h20.5q0.4 0 0.8 0.2 0.4 0.1 0.7 0.4 0.3 0.3 0.5 0.7 0.1 0.4 0.1 0.9v39.8q0 0.4-0.1 0.8-0.2 0.4-0.5 0.7-0.3 0.3-0.7 0.5-0.4 0.2-0.8 0.2h-20.5q-0.5 0-0.9-0.2-0.4-0.2-0.7-0.5-0.3-0.3-0.4-0.7-0.2-0.4-0.2-0.8v-39.8q0-0.5 0.2-0.9 0.1-0.4 0.4-0.7 0.3-0.3 0.7-0.4 0.4-0.2 0.9-0.2zm27.6 40.5v-36.9h16.6c7 1.2 14.1 5 21.2 9.5h12.9c5.8 0.3 8.9 6.2 3.2 10.1-4.5 3.3-10.5 3.2-16.6 2.6-4.2-0.2-4.4 5.5 0 5.5 1.5 0.1 3.2-0.2 4.6-0.2 7.7 0 13.9-1.5 17.8-7.5l1.9-4.6 19.2-9.5c9.6-3.2 16.4 6.9 9.4 13.8q-5.1 3.7-10.2 7.1-5.2 3.4-10.6 6.6-5.3 3.2-10.8 6-5.5 2.9-11.2 5.5c-10.5 6.5-21.1 6.3-31.7 0zm68.2-54.2h0.1l1.8 1.3q0.1 0 0.2 0.1 0.1 0.1 0.1 0.2 0.1 0.1 0.1 0.2 0.1 0.1 0.1 0.2 0 0.1 0 0.2 0 0.1 0 0.2-0.1 0.1-0.1 0.2-0.1 0.1-0.1 0.2l-1 1.5q0.1 0.1 0.2 0.2 0 0.2 0.1 0.3 0.1 0.1 0.2 0.2 0.1 0.1 0.1 0.3 0.1 0.1 0.2 0.2 0 0.1 0.1 0.3 0.1 0.1 0.1 0.2 0.1 0.1 0.2 0.3l1.6-0.3q0.1 0 0.2 0 0.1 0 0.2 0 0.2 0 0.3 0.1 0.1 0 0.1 0.1 0.1 0 0.2 0.1 0.1 0.1 0.1 0.2 0.1 0.1 0.1 0.2 0.1 0.1 0.1 0.2l0.4 2.2q0 0.1 0 0.3 0 0.1 0 0.2 0 0.1-0.1 0.2 0 0.1-0.1 0.2-0.1 0-0.1 0.1-0.1 0.1-0.2 0.1-0.1 0.1-0.2 0.1-0.1 0.1-0.2 0.1l-1.8 0.3q0 0.2 0 0.3-0.1 0.1-0.1 0.3 0 0.1-0.1 0.3 0 0.1 0 0.2-0.1 0.2-0.1 0.3 0 0.2-0.1 0.3 0 0.1-0.1 0.3 0 0.1-0.1 0.2l1.4 1q0.1 0 0.2 0.1 0 0.1 0.1 0.2 0 0.1 0.1 0.2 0 0.1 0 0.2 0.1 0.1 0.1 0.2 0 0.1-0.1 0.2 0 0.1 0 0.2-0.1 0.1-0.1 0.2l-1.4 1.9q0 0.1-0.1 0.2-0.1 0.1-0.2 0.1 0 0.1-0.2 0.1-0.1 0.1-0.2 0.1-0.1 0-0.2 0-0.1 0-0.2 0-0.1-0.1-0.2-0.1-0.1-0.1-0.2-0.1l-1.5-1q-0.5 0.3-1 0.6-0.1 0.1-0.2 0.2-0.2 0-0.3 0.1-0.1 0.1-0.2 0.1-0.2 0.1-0.3 0.2l0.3 1.7q0 0.1 0 0.2 0 0.1 0 0.2 0 0.1-0.1 0.2 0 0.1-0.1 0.2 0 0.1-0.1 0.2-0.1 0-0.2 0.1-0.1 0.1-0.2 0.1-0.1 0-0.2 0.1l-2.2 0.4q-0.1 0-0.3 0-0.1 0-0.2 0-0.1-0.1-0.2-0.1-0.1-0.1-0.2-0.1 0-0.1-0.1-0.2-0.1 0-0.1-0.1-0.1-0.1-0.1-0.2-0.1-0.1-0.1-0.2l-0.3-1.8q-0.2 0-0.3-0.1-0.1 0-0.3 0-0.1-0.1-0.3-0.1-0.1 0-0.2-0.1-0.2 0-0.3 0-0.2-0.1-0.3-0.1-0.1-0.1-0.3-0.1-0.1-0.1-0.2-0.1l-1 1.4q-0.1 0.1-0.2 0.1-0.1 0.1-0.2 0.2 0 0-0.1 0.1-0.2 0-0.3 0-0.1 0-0.2 0-0.1 0-0.2 0-0.1 0-0.2-0.1-0.1 0-0.2-0.1l-1.9-1.3q0 0-0.1-0.1-0.1-0.1-0.2-0.2 0-0.1-0.1-0.2 0-0.1 0-0.2 0-0.1 0-0.2 0-0.1 0-0.2 0-0.1 0.1-0.2 0-0.1 0.1-0.2l1-1.5q-0.1-0.1-0.1-0.2-0.1-0.2-0.2-0.3-0.1-0.1-0.2-0.2 0-0.2-0.1-0.3-0.1-0.1-0.2-0.2 0-0.2-0.1-0.3-0.1-0.1-0.1-0.2-0.1-0.2-0.2-0.3l-1.6 0.3q-0.1 0-0.2 0-0.1 0-0.2 0-0.1 0-0.2-0.1-0.1 0-0.2-0.1-0.1-0.1-0.2-0.1-0.1-0.1-0.1-0.2-0.1-0.1-0.1-0.2-0.1-0.1-0.1-0.2l-0.4-2.3q0-0.1 0-0.2 0-0.1 0-0.2 0-0.1 0.1-0.2 0-0.1 0.1-0.2 0.1-0.1 0.1-0.2 0.1 0 0.2-0.1 0.1 0 0.2-0.1 0.1 0 0.2 0l1.8-0.3q0-0.2 0.1-0.3 0-0.1 0-0.3 0.1-0.1 0.1-0.2 0-0.2 0.1-0.3 0-0.1 0-0.3 0.1-0.1 0.1-0.3 0.1-0.1 0.1-0.2 0.1-0.2 0.1-0.3l-1.3-1q-0.1-0.1-0.2-0.1-0.1-0.1-0.1-0.2-0.1-0.1-0.1-0.2-0.1-0.1-0.1-0.2 0-0.1 0-0.2 0-0.1 0-0.2 0-0.1 0.1-0.2 0-0.1 0.1-0.2l1.3-1.9q0.1-0.1 0.1-0.1 0.1-0.1 0.2-0.2 0.1 0 0.2-0.1 0.1 0 0.2 0 0.1-0.1 0.2-0.1 0.1 0 0.2 0.1 0.1 0 0.2 0 0.1 0.1 0.2 0.2l1.5 1q0.1-0.1 0.3-0.2 0.1-0.1 0.2-0.2 0.1-0.1 0.2-0.2 0.1 0 0.3-0.1 0.1-0.1 0.2-0.1 0.1-0.1 0.3-0.2 0.1-0.1 0.2-0.1 0.1-0.1 0.3-0.1l-0.3-1.7q-0.1-0.1-0.1-0.2 0-0.1 0.1-0.3 0-0.1 0-0.2 0.1-0.1 0.2-0.1 0-0.1 0.1-0.2 0.1-0.1 0.2-0.1 0.1-0.1 0.2-0.1 0.1-0.1 0.2-0.1l2.2-0.4q0.1 0 0.2 0 0.1 0 0.3 0 0.1 0 0.2 0.1 0.1 0 0.1 0.1 0.1 0 0.2 0.1 0.1 0.1 0.1 0.2 0.1 0.1 0.1 0.2 0.1 0.1 0.1 0.2l0.3 1.8q0.6 0.1 1.1 0.2 0.2 0.1 0.3 0.1 0.1 0 0.3 0.1 0.1 0 0.2 0.1 0.2 0 0.3 0.1l1-1.4q0.1-0.2 0.3-0.3 0.2-0.1 0.4-0.1 0.2-0.1 0.4 0 0.3 0 0.4 0.1zm-20-18.3q0.1 0 0.2 0.1 0.1 0.1 0.2 0.2 0.1 0.1 0.2 0.2 0.1 0.1 0.2 0.2l2 2.8q0 0.1 0.1 0.2 0.1 0.1 0.1 0.3 0.1 0.1 0.1 0.2 0.1 0.1 0.1 0.3 0 0.1 0 0.2 0.1 0.2 0.1 0.3 0 0.1-0.1 0.3 0 0.1 0 0.2 0 0.2-0.1 0.3 0 0.1 0 0.2-0.1 0.2-0.1 0.3-0.1 0.1-0.2 0.2 0 0.1-0.1 0.2-0.1 0.1-0.2 0.2-0.1 0.1-0.2 0.2-0.1 0.1-0.2 0.2l-1.7 1.2q0 0 0 0 0 0 0 0.1 0 0 0 0 0 0 0 0 0.1 0.5 0.2 0.9-2.3-0.5-4.6-0.9 0 0 0 0c-1.6-3.7-5.2-6.2-9.2-6.1l-0.1-0.1c-1.3 0-2.6 0.3-3.8 0.8-1.2 0.5-2.3 1.3-3.2 2.2q0 0 0 0-2.6-0.5-5-1 0.3-0.4 0.5-0.7l0.1-0.1-0.9-1.5q-0.1-0.1-0.1-0.2-0.1-0.1-0.1-0.3-0.1-0.1-0.1-0.2-0.1-0.1-0.1-0.3 0-0.1-0.1-0.2 0-0.2 0-0.3 0-0.1 0-0.2 0.1-0.2 0.1-0.3 0-0.1 0-0.2 0.1-0.2 0.1-0.3 0.1-0.1 0.1-0.2 0.1-0.2 0.2-0.3 0-0.1 0.1-0.2 0.1-0.1 0.2-0.2 0.1-0.1 0.2-0.2 0.1-0.1 0.2-0.2l2.8-2q0.1 0 0.2-0.1 0.1-0.1 0.3-0.1 0.1-0.1 0.2-0.1 0.2-0.1 0.3-0.1 0.1 0 0.3 0 0.1-0.1 0.2-0.1 0.2 0 0.3 0.1 0.1 0 0.3 0 0.1 0 0.2 0.1 0.1 0 0.3 0 0.1 0.1 0.2 0.1 0.1 0.1 0.3 0.2 0.1 0 0.2 0.1 0.1 0.1 0.2 0.2 0.1 0.1 0.1 0.2 0.1 0.1 0.2 0.2l1.2 1.7 0.1-0.2 0.9-0.2q0.5-0.1 0.9-0.2c0 0 0.1 0 0.2 0l0.2-1.7q0.1-0.1 0.1-0.3 0-0.1 0.1-0.2 0-0.1 0.1-0.3 0-0.1 0.1-0.2 0.1-0.1 0.2-0.2 0.1-0.1 0.1-0.2 0.1-0.1 0.2-0.2 0.1-0.1 0.3-0.2 0.1 0 0.2-0.1 0.1-0.1 0.2-0.1 0.1-0.1 0.2-0.1 0.2-0.1 0.3-0.1 0.1 0 0.3 0 0.1 0 0.2 0 0.2 0 0.3 0 0.1 0 0.3 0l3.4 0.5q0.1 0 0.3 0.1 0.1 0 0.2 0.1 0.2 0 0.3 0.1 0.1 0 0.2 0.1 0.1 0 0.2 0.1 0.1 0.1 0.2 0.2 0.1 0.1 0.2 0.2 0.1 0.1 0.2 0.2 0.1 0.1 0.1 0.2 0.1 0.2 0.2 0.3 0 0.1 0.1 0.2 0 0.2 0 0.3 0.1 0.1 0.1 0.3 0 0.1 0 0.2 0 0.2 0 0.3 0 0.1-0.1 0.3l-0.3 2 0.2 0.1 0.7 0.5q0.5 0.3 0.8 0.5l0.1 0.1 1.4-1q0.2-0.1 0.3-0.2 0.1 0 0.2-0.1 0.1-0.1 0.3-0.1 0.1 0 0.2-0.1 0.2 0 0.3 0 0.1 0 0.3 0 0.1 0 0.2 0 0.2 0 0.3 0 0.1 0.1 0.3 0.1 0.1 0 0.2 0.1 0.1 0 0.3 0.1 0.1 0 0.2 0.1zm-25.3 4.5q0 0 0 0 0 0 0 0c-11.6-2.3-28.4-5.6-52.7-10.3 0 0 0 0 52.7 10.3zm26 5.3q0 0.1 0 0.2 0.1 0.1 0.1 0.3 0 0.1 0 0.2v0.1l1.8 0.3q0.2 0 0.5 0.1 0.2 0.1 0.4 0.3 0.3 0.1 0.5 0.3 0.2 0.2 0.3 0.4 0.1 0.1 0.2 0.2 0 0.1 0.1 0.2 0 0.2 0.1 0.3 0 0.1 0 0.2 0.1 0.2 0.1 0.3 0 0.1 0 0.3 0 0.1 0 0.2 0 0.2-0.1 0.3l-0.5 3.4q-0.1 0.3-0.1 0.6-0.1 0.2-0.3 0.4-0.1 0.3-0.3 0.5-0.2 0.2-0.4 0.3-0.1 0.1-0.2 0.2-0.2 0-0.3 0.1-0.1 0-0.2 0.1-0.2 0-0.3 0.1-0.1 0-0.3 0-0.1 0-0.2 0-0.2 0-0.3 0-0.1 0-0.3 0l-2-0.4c0 0.1 0 0.1-0.1 0.2q-0.2 0.4-0.5 0.8-0.2 0.4-0.5 0.8h-0.1l1 1.5q0.1 0.1 0.2 0.3 0 0.1 0.1 0.2 0 0.1 0.1 0.3 0 0.1 0 0.2 0.1 0.1 0.1 0.3 0 0.1 0 0.2 0 0.2 0 0.3 0 0.1-0.1 0.3 0 0.1 0 0.2-0.1 0.2-0.1 0.3 0 0.1-0.1 0.2-0.1 0.2-0.1 0.3-0.1 0.1-0.2 0.2-0.1 0.1-0.1 0.2-0.1 0.1-0.2 0.2-0.1 0.1-0.2 0.2l-2.8 2q-0.2 0-0.3 0.1-0.1 0.1-0.2 0.1-0.2 0.1-0.3 0.1-0.1 0.1-0.2 0.1-0.2 0.1-0.3 0.1-0.2 0-0.3 0-0.1 0-0.3 0-0.1 0-0.2-0.1-0.2 0-0.3 0-0.1-0.1-0.2-0.1-0.2-0.1-0.3-0.1-0.1-0.1-0.2-0.1-0.1-0.1-0.2-0.2-0.2-0.1-0.2-0.2-0.1-0.1-0.2-0.2-0.1-0.1-0.2-0.2l-1.2-1.6q0 0 0 0 0 0 0 0-0.1 0-0.1 0 0 0 0 0-0.5 0.1-0.9 0.2-0.5 0-1 0.1 0 0 0 0 0 0-0.1 0 0 0 0 0 0 0 0 0l-0.3 1.8q0 0.1-0.1 0.2 0 0.1 0 0.3-0.1 0.1-0.1 0.2-0.1 0.1-0.2 0.3 0 0.1-0.1 0.2-0.1 0.1-0.2 0.2-0.1 0.1-0.2 0.1-0.1 0.1-0.2 0.2-0.1 0.1-0.2 0.2-0.1 0-0.3 0.1-0.1 0-0.2 0.1-0.1 0-0.2 0-0.2 0.1-0.3 0.1-0.1 0-0.3 0-0.1 0-0.2 0-0.2 0-0.3-0.1l-3.4-0.5q-0.3-0.1-0.6-0.2-0.2 0-0.5-0.2-0.2-0.1-0.4-0.3-0.2-0.2-0.3-0.4-0.1-0.1-0.2-0.2 0-0.2-0.1-0.3-0.1-0.1-0.1-0.2 0-0.2-0.1-0.3 0-0.1 0-0.3 0-0.1 0-0.2 0-0.2 0-0.3 0-0.1 0-0.3l0.4-2q0 0-0.1 0 0 0 0 0 0 0 0 0-0.1 0-0.1-0.1l-0.8-0.5q-0.4-0.2-0.7-0.5l-0.1-0.1-1.5 1q-0.1 0.1-0.3 0.2-0.1 0-0.2 0.1-0.1 0-0.3 0.1-0.1 0-0.2 0-0.1 0.1-0.3 0.1-0.1 0-0.2 0-0.2 0-0.3 0-0.1 0-0.3-0.1-0.1 0-0.2 0-0.2-0.1-0.3-0.1-0.1 0-0.2-0.1-0.2-0.1-0.3-0.1-0.1-0.1-0.2-0.2-0.1-0.1-0.2-0.1-0.1-0.1-0.2-0.2-0.1-0.1-0.1-0.2l-2-2.9q-0.1-0.1-0.2-0.2-0.1-0.1-0.1-0.3-0.1-0.1-0.1-0.2-0.1-0.1-0.1-0.3 0-0.1 0-0.2 0-0.2 0-0.3 0-0.1 0-0.3 0-0.1 0-0.2 0-0.2 0.1-0.3 0-0.1 0-0.3 0.1-0.1 0.2-0.2 0-0.1 0.1-0.2 0.1-0.1 0.1-0.3 0.1-0.1 0.2-0.2 0.1 0 0.2-0.1 0.1-0.1 0.2-0.2l1.7-1.2q0 0 0 0 0 0 0-0.1 0 0 0 0 0 0 0 0-0.1-0.5-0.2-1-0.1-0.4-0.2-0.9v0.2l-1.7-0.3q-0.2 0-0.3-0.1-0.1 0-0.2-0.1-0.2 0-0.3-0.1-0.1 0-0.2-0.1-0.1-0.1-0.2-0.1-0.1-0.1-0.2-0.2-0.1-0.1-0.2-0.2-0.1-0.1-0.2-0.2-0.1-0.1-0.1-0.3-0.1-0.1-0.2-0.2 0-0.1 0-0.3-0.1-0.1-0.1-0.2 0-0.1 0-0.3-0.1-0.1-0.1-0.2 0-0.1 0.1-0.3 0-0.1 0-0.2l0.6-3.5q0-0.2 0.1-0.5 0.1-0.2 0.2-0.5 0.2-0.2 0.3-0.4 0.2-0.2 0.4-0.3 0.2-0.1 0.3-0.2 0.1-0.1 0.2-0.1 0.1-0.1 0.3-0.1 0.1-0.1 0.2-0.1 0.2 0 0.3 0 0.1 0 0.3 0 0.1 0 0.2 0 0.2 0 0.3 0l2 0.3 0.1-0.1q0.2-0.4 0.5-0.8 2.6 0.6 4.9 1c-0.8 0.9-1.5 2-2 3.2-0.5 1.2-0.8 2.5-0.7 3.8 0 4 2.4 7.6 6.1 9.1 3.8 1.6 8 0.7 10.9-2.1 2.8-2.9 3.6-7 2.2-10.7 4.6 0.9 4.6 1 4.6 1zm-4.6-1c-1.5-0.3-3.5-0.7-6.1-1.2q-0.1-0.1-0.2-0.1 0-0.1-0.1-0.1 3.1 0.6 6.3 1.2 0 0.1 0.1 0.2zm-16.5-3.3q0.1 0 0.1-0.1 3 0.6 6.3 1.3 0 0 0 0-0.2 0-0.3 0-2.7-0.5-6.1-1.2zm9.2 1.5q0.1 0 0.3 0.1 0.1 0 0.2 0.1 0.2 0 0.3 0.1 0.1 0.1 0.1 0.1-1.9-0.4-3.7-0.7 0.1 0 0.2 0 0.2-0.1 0.3-0.1 0.1 0 0.3 0 0.1 0 0.3 0.1 0.1 0 0.3 0 0.1 0 0.3 0 0.1 0 0.3 0.1 0.1 0 0.2 0 0.2 0.1 0.3 0.1 0.2 0.1 0.3 0.1zm-3.1-0.2q2.4 0.5 4.3 0.8 0 0.1 0 0.1 0.2 0.1 0.3 0.2 0.1 0 0.2 0.1 0.1 0.1 0.2 0.2 0.1 0.1 0.2 0.2 0.1 0.1 0.2 0.2 0.1 0.1 0.2 0.2 0.1 0.1 0.1 0.3 0.1 0.1 0.2 0.2 0.1 0.1 0.1 0.2 0.1 0.2 0.2 0.3 0 0.1 0.1 0.3 0 0.1 0.1 0.2 0.1 0.2 0.1 0.3 0.1 0.1 0.1 0.3 0.1 0.1 0.1 0.3c0 0 0-0.1 0 0q0 0.2 0 0.3 0.1 0.1 0.1 0.2 0 0.2 0 0.3 0 0.1 0 0.2 0 0.2 0 0.4 0 0.1 0 0.3 0 0.1-0.1 0.3 0 0.2 0 0.3-0.1 0.2-0.1 0.3 0 0.2 0 0.3-0.1 0.2-0.1 0.3-0.1 0.1-0.1 0.3-0.1 0.1-0.1 0.2-0.1 0.2-0.2 0.3 0 0.1-0.1 0.2-0.1 0.2-0.1 0.3-0.1 0.1-0.2 0.2-0.1 0.1-0.2 0.2-0.1 0.2-0.1 0.3-0.1 0.1-0.2 0.2-0.1 0.1-0.2 0.2-0.1 0.1-0.2 0.2-0.1 0.1-0.2 0.1-0.1 0.1-0.3 0.2-0.2 0.2-0.4 0.3-0.3 0.1-0.5 0.3-0.3 0.1-0.5 0.2-0.3 0.1-0.6 0.1c0 0 0.1 0 0 0q-0.2 0.1-0.3 0.1-0.1 0-0.3 0-0.1 0-0.3 0-0.1 0-0.2 0-0.3 0-0.6 0-0.3 0-0.6-0.1-0.3 0-0.6-0.1-0.3-0.1-0.6-0.2-0.1 0-0.2-0.1-0.1 0-0.3-0.1-0.1-0.1-0.2-0.1-0.1-0.1-0.3-0.2-0.1 0-0.2-0.1-0.1-0.1-0.2-0.2-0.1-0.1-0.3-0.2-0.1-0.1-0.2-0.2-0.1-0.1-0.2-0.2-0.1-0.1-0.2-0.2-0.1-0.1-0.1-0.2-0.1-0.1-0.2-0.2-0.1-0.1-0.2-0.2 0-0.1-0.1-0.3-0.1-0.1-0.1-0.2-0.1-0.1-0.1-0.2-0.1-0.2-0.2-0.3 0-0.1-0.1-0.3 0-0.1 0-0.3-0.1-0.1-0.1-0.2 0 0 0 0 0-0.1 0-0.1 0 0 0 0 0 0 0 0 0-0.1-0.1-0.3 0-0.1 0-0.2 0-0.2 0-0.3-0.1-0.1-0.1-0.3 0-0.3 0-0.6 0.1-0.3 0.1-0.6 0.1-0.2 0.1-0.5 0.1-0.3 0.2-0.6 0.1-0.1 0.1-0.2 0.1-0.2 0.1-0.3 0.1-0.1 0.2-0.2 0-0.2 0.1-0.3 0.1-0.1 0.2-0.2 0.1-0.1 0.2-0.3 0-0.1 0.1-0.2 0.1-0.1 0.2-0.2 0.1-0.1 0.2-0.2 0.1-0.1 0.2-0.2 0.1-0.1 0.2-0.2 0.1-0.1 0.3-0.1 0.1-0.1 0.2-0.2 0.1-0.1 0.2-0.1 0.2-0.1 0.3-0.2 0.1 0 0.3-0.1 0.1 0 0.2-0.1 0.1 0 0.3-0.1 0.1 0 0.3-0.1 0.1 0 0.2 0h0.1q0.1-0.1 0.3-0.1 0 0 0 0zm27.9 17q-0.3 0.1-0.5 0.1-0.2 0.1-0.4 0.2-0.2 0-0.4 0.2-0.2 0.1-0.4 0.2-0.2 0.1-0.3 0.2-0.2 0.2-0.4 0.3-0.1 0.2-0.3 0.3-0.1 0.2-0.2 0.4-0.2 0.1-0.3 0.3-0.1 0.2-0.1 0.4-0.1 0.2-0.2 0.4-0.1 0.2-0.1 0.4-0.1 0.3-0.1 0.5 0 0.2 0 0.4 0 0.3 0 0.5 0 0.2 0 0.4 0.1 0.3 0.1 0.5 0.1 0.2 0.2 0.4 0 0.2 0.1 0.4 0.1 0.2 0.3 0.4 0.1 0.2 0.2 0.3 0.1 0.2 0.3 0.4 0.1 0.1 0.3 0.3 0.2 0.1 0.3 0.2 0.2 0.2 0.4 0.3 0.2 0.1 0.4 0.1 0.2 0.1 0.4 0.2 0.2 0.1 0.4 0.1 0.2 0.1 0.5 0.1 0.2 0 0.4 0 0.2 0 0.4 0 0.3 0 0.5-0.1 0.2 0 0.4-0.1 0.2 0 0.4-0.1 0.3-0.1 0.4-0.2 0.2-0.1 0.4-0.2 0.2-0.1 0.4-0.3 0.2-0.1 0.3-0.3 0.2-0.1 0.3-0.3 0.2-0.1 0.3-0.3 0.1-0.2 0.2-0.4 0.1-0.2 0.2-0.4 0.1-0.2 0.2-0.4 0-0.2 0.1-0.4 0-0.2 0-0.5 0.1-0.2 0.1-0.4 0-0.2-0.1-0.4 0-0.3 0-0.5-0.1-0.2-0.1-0.4-0.1-0.2-0.1-0.5-0.1-0.2-0.2-0.4-0.1-0.2-0.2-0.3-0.2-0.2-0.3-0.4-0.1-0.2-0.3-0.3-0.1-0.2-0.3-0.3-0.2-0.2-0.3-0.3-0.2-0.1-0.4-0.2-0.2-0.1-0.4-0.2-0.2-0.1-0.4-0.2-0.2 0-0.4-0.1-0.2 0-0.4 0-0.3-0.1-0.5-0.1-0.2 0-0.4 0.1-0.3 0-0.5 0zm-79.1 15.2q-0.7 0-1.3 0.2-0.6 0.3-1 0.7-0.5 0.5-0.7 1.1-0.3 0.6-0.3 1.2c0.1 1.3 0.8 2.5 2.1 3 1.2 0.5 2.5 0.2 3.5-0.8 0.9-0.9 1.1-2.3 0.6-3.5-0.5-1.2-1.6-2-2.9-2z"/>
</svg>