<svg version="1.2" xmlns="http://www.w3.org/2000/svg" viewBox="0 0 448 512" width="448" height="512">
	<title>user-graduate-solid-svg</title>
	<style>
		.s0 { fill: #ffffff } 
	</style>
	<path id="Layer" class="s0" d="m219.3 0.5c3.1-0.6 6.3-0.6 9.4 0l200 40c11.2 2.2 19.3 12.1 19.3 23.5 0 11.4-8.1 21.3-19.3 23.5l-76.7 15.4v57.1c0 70.7-57.3 128-128 128-70.7 0-128-57.3-128-128v-57.1l-48-9.6v65.1l15.7 78.4c0.9 4.7-0.3 9.6-3.3 13.3-3 3.7-7.6 5.9-12.4 5.9h-32c-4.8 0-9.3-2.1-12.4-5.9-3.1-3.8-4.3-8.6-3.3-13.3l15.7-78.4v-71.8c-9.5-3.3-16-12.3-16-22.6 0-11.4 8.1-21.3 19.3-23.5zm-107.4 327.2c10.5-3.4 21.8 0.4 29.4 8.5l71 75.5c6.3 6.7 17 6.7 23.3 0l71-75.5c7.6-8.1 18.9-11.9 29.4-8.5 65 20.9 112 81.7 112 153.6 0 17-13.8 30.7-30.7 30.7h-386.6c-16.9 0-30.7-13.8-30.7-30.7 0-71.9 47-132.7 111.9-153.6z"/>
</svg>