<svg version="1.2" xmlns="http://www.w3.org/2000/svg" viewBox="0 0 640 512" width="640" height="512">
	<title>users-rectangle-solid-svg</title>
	<style>
		.s0 { fill: #ffffff } 
	</style>
	<path id="Layer" fill-rule="evenodd" class="s0" d="m544 0c53 0 96 43 96 96v320c0 53-43 96-96 96h-448c-53 0-96-43-96-96v-320c0-53 43-96 96-96zm-480 416c0 17.7 14.3 32 32 32h448c17.7 0 32-14.3 32-32v-320c0-17.7-14.3-32-32-32h-448c-17.7 0-32 14.3-32 32zm145.7-206.1c-9 9-21.2 14.1-33.9 14.1-12.7 0-24.9-5.1-33.9-14.1-9-9-14.1-21.2-14.1-33.9 0-12.7 5.1-24.9 14.1-33.9 9-9 21.2-14.1 33.9-14.1 12.7 0 24.9 5.1 33.9 14.1 9 9 14.1 21.2 14.1 33.9 0 12.7-5.1 24.9-14.1 33.9zm-60.4 46.1h69.4c9.1 0 17.8 2.3 25.3 6.4-32.4 11.9-57.2 39.5-65.2 73.6h-56.1c-14.8 0-26.7-12-26.7-26.7 0-29.4 23.9-53.3 53.3-53.3zm246.7 6.4c7.5-4.1 16.1-6.4 25.3-6.4h69.4c29.4 0 53.3 23.8 53.3 53.3 0 14.8-12 26.7-26.7 26.7h-56.1c-8-34.1-32.8-61.7-65.2-73.6zm31.9 73.6c2.7 7.5 4.1 15.6 4.1 24 0 13.3-10.7 24-24 24h-176c-13.3 0-24-10.7-24-24 0-8.4 1.4-16.5 4.1-24 8.6-24.3 29.9-42.6 55.9-47 3.9-0.7 7.9-1 12-1h80c4.1 0 8.1 0.3 12 1 26 4.4 47.3 22.7 55.9 47zm70-126.1c-9 9-21.2 14.1-33.9 14.1-12.7 0-24.9-5.1-33.9-14.1-9-9-14.1-21.2-14.1-33.9 0-12.7 5.1-24.9 14.1-33.9 9-9 21.2-14.1 33.9-14.1 12.7 0 24.9 5.1 33.9 14.1 9 9 14.1 21.2 14.1 33.9 0 12.7-5.1 24.9-14.1 33.9zm-223.2 27.4c-12-12-18.7-28.3-18.7-45.3 0-17 6.7-33.3 18.7-45.3 12-12 28.3-18.7 45.3-18.7 17 0 33.3 6.7 45.3 18.7 12 12 18.7 28.3 18.7 45.3 0 17-6.7 33.3-18.7 45.3-12 12-28.3 18.7-45.3 18.7-17 0-33.3-6.7-45.3-18.7z"/>
</svg>