<svg version="1.2" xmlns="http://www.w3.org/2000/svg" viewBox="0 0 512 512" width="512" height="512">
	<title>circle-question-regular-svg</title>
	<style>
		.s0 { fill: #ffffff } 
	</style>
	<path id="Layer" fill-rule="evenodd" class="s0" d="m0 256c0-67.9 27-133 75-181 48-48 113.1-75 181-75 67.9 0 133 27 181 75 48 48 75 113.1 75 181 0 67.9-27 133-75 181-48 48-113.1 75-181 75-67.9 0-133-27-181-75-48-48-75-113.1-75-181zm464 0c0-55.2-21.9-108.1-60.9-147.1-39-39-91.9-60.9-147.1-60.9-55.2 0-108.1 21.9-147.1 60.9-39 39-60.9 91.9-60.9 147.1 0 55.2 21.9 108.1 60.9 147.1 39 39 91.9 60.9 147.1 60.9 55.2 0 108.1-21.9 147.1-60.9 39-39 60.9-91.9 60.9-147.1zm-294.2-90.7c7.9-22.3 29.1-37.3 52.8-37.3h58.3c34.9 0 63.1 28.3 63.1 63.1 0 22.6-12.1 43.5-31.7 54.8l-32.3 18.5c-0.2 13-10.9 23.6-24 23.6-13.3 0-24-10.7-24-24v-13.5c0-8.6 4.6-16.5 12.1-20.8l44.3-25.4c4.7-2.7 7.6-7.7 7.6-13.1 0-8.4-6.8-15.1-15.1-15.1h-58.3c-3.4 0-6.4 2.1-7.5 5.3l-0.4 1.2c-4.4 12.5-18.2 19-30.6 14.6-12.4-4.4-19-18.2-14.6-30.6l0.4-1.2zm54.2 186.7c0-8.5 3.4-16.6 9.4-22.6 6-6 14.1-9.4 22.6-9.4 8.5 0 16.6 3.4 22.6 9.4 6 6 9.4 14.1 9.4 22.6 0 8.5-3.4 16.6-9.4 22.6-6 6-14.1 9.4-22.6 9.4-8.5 0-16.6-3.4-22.6-9.4-6-6-9.4-14.1-9.4-22.6z"/>
</svg>