<svg version="1.2" xmlns="http://www.w3.org/2000/svg" viewBox="0 0 512 512" width="512" height="512">
	<title>pen-to-square-regular-svg</title>
	<style>
		.s0 { fill: #ffffff } 
	</style>
	<path id="Layer" fill-rule="evenodd" class="s0" d="m474.9 25l12.1 12.1c28.1 28.1 28.1 73.7 0 101.8l-197.3 197.2c-8.6 8.6-19.3 14.9-31.1 18.3l-100 28.6c-8.4 2.4-17.4 0.1-23.6-6.1-6.2-6.2-8.5-15.2-6.1-23.6l28.6-100c3.3-11.7 9.6-22.4 18.3-31.1l197.3-197.2c28.1-28.1 73.7-28.1 101.8 0zm-274.9 39c13.3 0 24 10.7 24 24 0 13.3-10.7 24-24 24h-112c-22.1 0-40 17.9-40 40v272c0 22.1 17.9 40 40 40h272c22.1 0 40-17.9 40-40v-112c0-13.3 10.7-24 24-24 13.3 0 24 10.7 24 24v112c0 48.6-39.4 88-88 88h-272c-48.6 0-88-39.4-88-88v-272c0-48.6 39.4-88 88-88zm240.9-5.1c-9.3-9.4-24.5-9.4-33.9 0l-29.1 29.1 46.1 46.1 29.1-29.2c9.4-9.3 9.4-24.5 0-33.9l-12.1-12.1zm-231.2 197.2c-2.9 2.9-5 6.5-6.1 10.4l-16.7 58.5 58.5-16.7c3.9-1.1 7.5-3.2 10.4-6.1l134.3-134.2-46.1-46.1-134.2 134.3z"/>
</svg>