<svg version="1.2" xmlns="http://www.w3.org/2000/svg" viewBox="0 0 448 512" width="448" height="512">
	<title>user-regular-svg</title>
	<style>
		.s0 { fill: #ffd700 } 
	</style>
	<path id="Layer" fill-rule="evenodd" class="s0" d="m96 128c0-33.9 13.5-66.5 37.5-90.5 24-24 56.6-37.5 90.5-37.5 33.9 0 66.5 13.5 90.5 37.5 24 24 37.5 56.6 37.5 90.5 0 33.9-13.5 66.5-37.5 90.5-24 24-56.6 37.5-90.5 37.5-33.9 0-66.5-13.5-90.5-37.5-24-24-37.5-56.6-37.5-90.5zm208 0c0-21.2-8.4-41.6-23.4-56.6-15-15-35.4-23.4-56.6-23.4-21.2 0-41.6 8.4-56.6 23.4-15 15-23.4 35.4-23.4 56.6 0 21.2 8.4 41.6 23.4 56.6 15 15 35.4 23.4 56.6 23.4 21.2 0 41.6-8.4 56.6-23.4 15-15 23.4-35.4 23.4-56.6zm-304 354.3c0-98.5 79.8-178.3 178.3-178.3h91.4c98.5 0 178.3 79.8 178.3 178.3 0 16.4-13.3 29.7-29.7 29.7h-388.6c-16.4 0-29.7-13.3-29.7-29.7zm49.3-18.3h349.4c-8.9-63.3-63.3-112-129-112h-91.4c-65.7 0-120.1 48.7-129 112z"/>
</svg>