<svg version="1.2" xmlns="http://www.w3.org/2000/svg" viewBox="0 0 123 106" width="123" height="106">
	<title>layer-icon-svg</title>
	<style>
		.s0 { fill: #0f77aa } 
	</style>
	<g id="Layer">
		<path id="Layer" fill-rule="evenodd" class="s0" d="m97.3 40.6l23.8 10.3c1.5 0.6 2.2 2.3 1.5 3.8-0.3 0.8-0.9 1.3-1.6 1.6l-23.2 9.4 23.3 10c1.5 0.7 2.2 2.4 1.5 3.9-0.3 0.7-0.9 1.3-1.6 1.5l-58.5 23.7c-0.7 0.3-1.5 0.3-2.2 0l-58.5-23.8c-1.5-0.6-2.2-2.3-1.6-3.8 0.3-0.8 1-1.4 1.8-1.6l22.9-10-23.1-9.4c-1.5-0.6-2.2-2.3-1.6-3.8 0.4-0.8 1-1.4 1.8-1.7l23.5-10.2-23.7-9.6c-1.5-0.6-2.2-2.3-1.6-3.8 0.4-0.8 1-1.4 1.8-1.7l58-25.2c0.8-0.3 1.6-0.3 2.3 0l58.8 25.3c1.5 0.7 2.2 2.4 1.5 3.9-0.3 0.7-0.9 1.3-1.6 1.6zm15.1 12.8l-22.7-9.7-27.2 10.9c-0.7 0.3-1.5 0.3-2.2 0l-27.2-11-22.6 9.8 50.9 20.7zm-22.1 15.3l-27.7 11.2c-0.8 0.3-1.5 0.2-2.2 0l-27.8-11.3-22 9.6 50.9 20.6 50.9-20.6zm-29-62.6l-50.7 21.9 50.9 20.7 51-20.6z"/>
	</g>
</svg>