<svg version="1.2" xmlns="http://www.w3.org/2000/svg" viewBox="0 0 123 107" width="123" height="107">
	<title>speedometer-icon-svg</title>
	<style>
		.s0 { fill: #0f77aa } 
	</style>
	<g id="Layer">
		<path id="Layer" fill-rule="evenodd" class="s0" d="m19.3 106.2c-3-2.9-5.8-6.1-8.2-9.5-2.4-3.4-4.4-7.1-6.1-10.9q-2.4-5.7-3.7-11.9c-0.9-4-1.3-8.2-1.3-12.5 0-8.3 1.7-16.2 4.6-23.4 3.2-7.6 7.7-14.3 13.4-20 5.7-5.7 12.4-10.2 20-13.3 7.2-3 15.1-4.7 23.4-4.7 8.3 0 16.3 1.7 23.5 4.7 7.5 3.1 14.3 7.7 19.9 13.3 5.7 5.7 10.3 12.5 13.4 20 3 7.2 4.7 15.2 4.7 23.4q0 6.1-1.2 11.9-1.2 5.9-3.4 11.4c-1.6 3.7-3.5 7.2-5.7 10.5q-3.3 5.1-7.6 9.3c-0.2 0.2-0.5 0.2-0.7 0l-3-3q-0.1-0.1-0.2-0.1l-8.6-8.6c-0.2-0.2-0.2-0.5 0-0.7l4.5-4.5c0.2-0.2 0.5-0.2 0.7 0l6.6 6.6q2.1-2.7 3.9-5.7 1.8-3.2 3.3-6.6c1.3-3.1 2.3-6.4 2.9-9.7q1-4.7 1.1-9.7h-9.1c-0.3 0-0.5-0.2-0.5-0.5v-6.3c0-0.3 0.2-0.5 0.5-0.5h8.8c-0.7-5.9-2.4-11.4-4.8-16.6-2.4-5.3-5.8-10.1-9.8-14.3l-5.8 5.8c-0.2 0.2-0.6 0.2-0.7 0l-4.5-4.5c-0.2-0.2-0.2-0.5 0-0.7l5.6-5.6c-4.4-3.6-9.4-6.5-14.8-8.5-5.3-2-10.9-3.2-16.8-3.4v8c0 0.3-0.2 0.5-0.5 0.5h-6.4c-0.2 0-0.5-0.2-0.5-0.5v-7.8c-5.8 0.5-11.4 2-16.5 4.3-5.3 2.3-10.2 5.5-14.4 9.3l5.9 5.8c0.1 0.2 0.1 0.6 0 0.7l-4.5 4.5c-0.2 0.2-0.5 0.2-0.7 0l-5.8-5.8c-3.8 4.4-6.8 9.4-9 14.9-2.1 5.3-3.4 11-3.8 16.9h9.1c0.2 0 0.5 0.2 0.5 0.5v6.4c0 0.3-0.2 0.5-0.5 0.5h-9q0.3 4.4 1.4 8.6 1 4.5 2.9 8.7 1.5 3.6 3.6 7 1.9 3.1 4.3 5.9l7.2-7.2c0.2-0.2 0.5-0.2 0.7 0l4.5 4.5c0.2 0.2 0.2 0.5 0 0.7-4.1 4.1-8.1 8.1-12.1 12.4-0.2 0.1-0.5 0.2-0.7 0zm38.9-53.2l28.6-18.2c0.2-0.2 0.4-0.2 0.6 0l2.8 3c0.1 0.1 0.1 0.4 0 0.6l-21.7 25.2c-3.1 3.3-6.4 4-9 3.1-1.3-0.4-2.5-1.2-3.4-2.2-0.8-1.1-1.4-2.3-1.7-3.7-0.5-2.6 0.5-5.6 3.7-7.8z"/>
	</g>
</svg>