<svg id="Layer_1" data-name="Layer 1" xmlns="http://www.w3.org/2000/svg" viewBox="0 0 248.25 158.41"><defs><style>.cls-1{fill:#0a78aa;}.cls-2{fill:#fcd601;}</style></defs><path class="cls-1" d="M92.88,164.44a4.28,4.28,0,0,1-1.76.31,3.09,3.09,0,0,1-3.27-3.35,3.3,3.3,0,0,1,3.46-3.49,3.54,3.54,0,0,1,1.58.3l-.21.7a3.11,3.11,0,0,0-1.34-.28,2.47,2.47,0,0,0-2.59,2.74A2.41,2.41,0,0,0,91.3,164a3.42,3.42,0,0,0,1.4-.27Z" transform="translate(-21.63 -72.59)"/><path class="cls-1" d="M98.75,162.23a2.33,2.33,0,0,1-2.38,2.53,2.26,2.26,0,0,1-2.28-2.45,2.33,2.33,0,0,1,2.36-2.53A2.26,2.26,0,0,1,98.75,162.23Zm-3.78.05c0,1.05.6,1.83,1.44,1.83s1.45-.77,1.45-1.85c0-.8-.4-1.83-1.43-1.83S95,161.38,95,162.28Z" transform="translate(-21.63 -72.59)"/><path class="cls-1" d="M100.46,161.18c0-.49,0-.9,0-1.29h.76l0,.77h0a1.66,1.66,0,0,1,1.5-.88,1.42,1.42,0,0,1,1.35,1h0a1.72,1.72,0,0,1,.53-.62,1.59,1.59,0,0,1,1-.34c.63,0,1.57.42,1.57,2.07v2.8h-.85V162c0-.92-.34-1.47-1-1.47a1.11,1.11,0,0,0-1,.79,1.38,1.38,0,0,0-.07.43v2.94h-.84V161.8c0-.76-.34-1.31-1-1.31a1.18,1.18,0,0,0-1.07.87,1.12,1.12,0,0,0-.07.42v2.87h-.85Z" transform="translate(-21.63 -72.59)"/><path class="cls-1" d="M109.3,161.45c0-.61,0-1.11,0-1.56H110l0,.82h0a1.87,1.87,0,0,1,1.69-.93,2.16,2.16,0,0,1,2,2.42,2.26,2.26,0,0,1-2.17,2.56,1.67,1.67,0,0,1-1.47-.75h0v2.59h-.85Zm.85,1.27a2,2,0,0,0,0,.35,1.34,1.34,0,0,0,1.3,1c.92,0,1.45-.74,1.45-1.84s-.5-1.77-1.42-1.77a1.38,1.38,0,0,0-1.31,1.07,1.43,1.43,0,0,0-.06.36Z" transform="translate(-21.63 -72.59)"/><path class="cls-1" d="M118.16,164.65l-.07-.6h0a1.76,1.76,0,0,1-1.46.71,1.35,1.35,0,0,1-1.45-1.37c0-1.15,1-1.78,2.86-1.77v-.1a1,1,0,0,0-1.08-1.1,2.34,2.34,0,0,0-1.24.36l-.2-.57a3,3,0,0,1,1.57-.43c1.45,0,1.81,1,1.81,1.95v1.78a6.5,6.5,0,0,0,.08,1.14Zm-.13-2.43c-.94,0-2,.15-2,1.08a.77.77,0,0,0,.82.82,1.17,1.17,0,0,0,1.15-.79.92.92,0,0,0,0-.28Z" transform="translate(-21.63 -72.59)"/><path class="cls-1" d="M120.89,161.18c0-.49,0-.9,0-1.29h.77l0,.79h0a1.72,1.72,0,0,1,1.57-.9c.66,0,1.68.4,1.68,2v2.84h-.86v-2.74c0-.77-.29-1.41-1.1-1.41a1.24,1.24,0,0,0-1.17.89,1.5,1.5,0,0,0,0,.4v2.86h-.87Z" transform="translate(-21.63 -72.59)"/><path class="cls-1" d="M127.16,159.89l1.05,2.82c.1.31.22.68.3,1h0c.09-.29.19-.65.31-1l.94-2.8h.92l-1.3,3.4a7.25,7.25,0,0,1-1.64,3,2.35,2.35,0,0,1-1.06.56l-.22-.73a2.33,2.33,0,0,0,.76-.42,2.61,2.61,0,0,0,.73-1,.59.59,0,0,0,.07-.2.77.77,0,0,0-.06-.23l-1.76-4.39Z" transform="translate(-21.63 -72.59)"/><path class="cls-1" d="M134.82,161.45c0-.61,0-1.11,0-1.56h.77l0,.82h0a1.89,1.89,0,0,1,1.7-.93,2.16,2.16,0,0,1,2,2.42c0,1.72-1,2.56-2.16,2.56a1.67,1.67,0,0,1-1.47-.75h0v2.59h-.85Zm.85,1.27a2,2,0,0,0,0,.35,1.34,1.34,0,0,0,1.3,1c.92,0,1.45-.74,1.45-1.84s-.5-1.77-1.42-1.77a1.38,1.38,0,0,0-1.31,1.07,1.43,1.43,0,0,0-.06.36Z" transform="translate(-21.63 -72.59)"/><path class="cls-1" d="M141,161.38c0-.56,0-1,0-1.49h.76l0,.94h0a1.43,1.43,0,0,1,1.32-1.05.93.93,0,0,1,.24,0v.82a1.23,1.23,0,0,0-.29,0,1.21,1.21,0,0,0-1.16,1.11,2.46,2.46,0,0,0,0,.4v2.54H141Z" transform="translate(-21.63 -72.59)"/><path class="cls-1" d="M149.09,162.23a2.33,2.33,0,0,1-2.37,2.53,2.26,2.26,0,0,1-2.28-2.45,2.33,2.33,0,0,1,2.36-2.53A2.26,2.26,0,0,1,149.09,162.23Zm-3.78.05c0,1.05.6,1.83,1.45,1.83s1.45-.77,1.45-1.85c0-.8-.41-1.83-1.43-1.83S145.31,161.38,145.31,162.28Z" transform="translate(-21.63 -72.59)"/><path class="cls-1" d="M151.08,159.89l.93,2.68a9.4,9.4,0,0,1,.38,1.22h0c.11-.4.25-.79.41-1.22l.92-2.68h.91l-1.87,4.76H152l-1.81-4.76Z" transform="translate(-21.63 -72.59)"/><path class="cls-1" d="M157.06,158.55a.5.5,0,0,1-.55.53.51.51,0,0,1-.52-.53.53.53,0,0,1,.54-.54A.51.51,0,0,1,157.06,158.55Zm-1,6.1v-4.76H157v4.76Z" transform="translate(-21.63 -72.59)"/><path class="cls-1" d="M163.14,157.67v5.75c0,.43,0,.91,0,1.23h-.78l0-.82h0a1.75,1.75,0,0,1-1.62.93,2.17,2.17,0,0,1-2-2.42,2.28,2.28,0,0,1,2.14-2.56,1.59,1.59,0,0,1,1.43.73h0v-2.84Zm-.87,4.16a1.42,1.42,0,0,0,0-.36,1.27,1.27,0,0,0-1.25-1c-.89,0-1.42.79-1.42,1.84s.47,1.76,1.4,1.76a1.29,1.29,0,0,0,1.27-1,1.5,1.5,0,0,0,0-.37Z" transform="translate(-21.63 -72.59)"/><path class="cls-1" d="M166.16,158.55a.5.5,0,0,1-.55.53.51.51,0,0,1-.52-.53.53.53,0,0,1,.54-.54A.51.51,0,0,1,166.16,158.55Zm-1,6.1v-4.76h.87v4.76Z" transform="translate(-21.63 -72.59)"/><path class="cls-1" d="M168.12,161.18c0-.49,0-.9,0-1.29h.77l.05.79h0a1.75,1.75,0,0,1,1.58-.9c.66,0,1.68.4,1.68,2v2.84h-.87v-2.74c0-.77-.28-1.41-1.1-1.41a1.23,1.23,0,0,0-1.16.89,1.16,1.16,0,0,0-.06.4v2.86h-.87Z" transform="translate(-21.63 -72.59)"/><path class="cls-1" d="M178.31,159.89c0,.34,0,.73,0,1.31V164a2.73,2.73,0,0,1-.68,2.17,2.57,2.57,0,0,1-1.74.57,3.11,3.11,0,0,1-1.58-.39l.22-.66a2.62,2.62,0,0,0,1.39.37c.89,0,1.54-.46,1.54-1.66v-.53h0a1.71,1.71,0,0,1-1.52.79,2.12,2.12,0,0,1-2-2.32,2.29,2.29,0,0,1,2.14-2.53,1.6,1.6,0,0,1,1.49.83h0l0-.72Zm-.89,1.88a1.15,1.15,0,0,0,0-.39,1.24,1.24,0,0,0-1.21-.92c-.83,0-1.42.7-1.42,1.8,0,.94.47,1.72,1.41,1.72a1.27,1.27,0,0,0,1.2-.89,1.51,1.51,0,0,0,.07-.46Z" transform="translate(-21.63 -72.59)"/><path class="cls-1" d="M183.9,162.08h0c.12-.17.29-.38.42-.55l1.4-1.64h1l-1.84,2,2.1,2.8h-1l-1.65-2.28-.44.49v1.79H183v-7h.86Z" transform="translate(-21.63 -72.59)"/><path class="cls-1" d="M192.31,163.36c0,.49,0,.92,0,1.29h-.77l-.05-.77h0a1.79,1.79,0,0,1-1.57.88c-.75,0-1.65-.41-1.65-2.08v-2.79h.87v2.64c0,.9.28,1.51,1.06,1.51a1.26,1.26,0,0,0,1.15-.78,1.57,1.57,0,0,0,.07-.45v-2.92h.87Z" transform="translate(-21.63 -72.59)"/><path class="cls-1" d="M194.33,164.65c0-.32,0-.8,0-1.23v-5.75h.86v3h0a1.77,1.77,0,0,1,1.62-.88,2.14,2.14,0,0,1,2,2.43,2.26,2.26,0,0,1-2.14,2.55,1.68,1.68,0,0,1-1.59-.89h0l0,.78Zm.9-1.91a1.65,1.65,0,0,0,0,.32,1.33,1.33,0,0,0,1.3,1c.9,0,1.44-.73,1.44-1.83s-.49-1.77-1.41-1.77a1.36,1.36,0,0,0-1.32,1.06,1.73,1.73,0,0,0-.05.36Z" transform="translate(-21.63 -72.59)"/><path class="cls-1" d="M201.08,162.43a1.52,1.52,0,0,0,1.63,1.65,3.1,3.1,0,0,0,1.32-.24l.15.62a3.88,3.88,0,0,1-1.59.29,2.21,2.21,0,0,1-2.34-2.4,2.31,2.31,0,0,1,2.23-2.57,2,2,0,0,1,2,2.25,3.29,3.29,0,0,1,0,.4Zm2.54-.62a1.24,1.24,0,0,0-1.2-1.41,1.44,1.44,0,0,0-1.33,1.41Z" transform="translate(-21.63 -72.59)"/><path class="cls-1" d="M206.15,161.38c0-.56,0-1,0-1.49h.76l0,.94h0a1.43,1.43,0,0,1,1.32-1.05.93.93,0,0,1,.24,0v.82a1.29,1.29,0,0,0-.29,0,1.21,1.21,0,0,0-1.16,1.11,1.7,1.7,0,0,0,0,.4v2.54h-.86Z" transform="translate(-21.63 -72.59)"/><path class="cls-1" d="M210,161.18c0-.49,0-.9,0-1.29h.77l.05.79h0a1.72,1.72,0,0,1,1.57-.9c.66,0,1.69.4,1.69,2v2.84h-.87v-2.74c0-.77-.29-1.41-1.1-1.41a1.24,1.24,0,0,0-1.17.89,1.5,1.5,0,0,0,0,.4v2.86H210Z" transform="translate(-21.63 -72.59)"/><path class="cls-1" d="M216.6,162.43a1.52,1.52,0,0,0,1.63,1.65,3.1,3.1,0,0,0,1.32-.24l.15.62a3.86,3.86,0,0,1-1.58.29,2.21,2.21,0,0,1-2.35-2.4,2.31,2.31,0,0,1,2.24-2.57,2,2,0,0,1,2,2.25,3.29,3.29,0,0,1,0,.4Zm2.54-.62a1.24,1.24,0,0,0-1.2-1.41,1.44,1.44,0,0,0-1.33,1.41Z" transform="translate(-21.63 -72.59)"/><path class="cls-1" d="M222.71,158.52v1.37H224v.66h-1.24v2.57c0,.59.17.92.65.92a2.69,2.69,0,0,0,.51,0l0,.64a2.13,2.13,0,0,1-.77.12,1.23,1.23,0,0,1-.94-.36,1.8,1.8,0,0,1-.33-1.24v-2.6h-.74v-.66h.74v-1.14Z" transform="translate(-21.63 -72.59)"/><path class="cls-1" d="M226,162.43a1.53,1.53,0,0,0,1.64,1.65,3.13,3.13,0,0,0,1.32-.24l.15.62a3.88,3.88,0,0,1-1.59.29,2.21,2.21,0,0,1-2.34-2.4,2.31,2.31,0,0,1,2.23-2.57,2,2,0,0,1,2,2.25,3.29,3.29,0,0,1,0,.4Zm2.54-.62a1.23,1.23,0,0,0-1.2-1.41,1.44,1.44,0,0,0-1.33,1.41Z" transform="translate(-21.63 -72.59)"/><path class="cls-1" d="M230.93,163.77a2.26,2.26,0,0,0,1.14.34c.63,0,.93-.31.93-.71s-.25-.64-.89-.87c-.86-.31-1.26-.78-1.26-1.35a1.47,1.47,0,0,1,1.64-1.4,2.37,2.37,0,0,1,1.18.3l-.22.63a1.84,1.84,0,0,0-1-.28c-.51,0-.79.3-.79.65s.28.57.9.81c.83.31,1.25.73,1.25,1.44s-.65,1.42-1.78,1.42a2.82,2.82,0,0,1-1.34-.32Z" transform="translate(-21.63 -72.59)"/><path class="cls-1" d="M238.16,163.77a2.23,2.23,0,0,0,1.14.34c.63,0,.92-.31.92-.71s-.24-.64-.88-.87c-.86-.31-1.26-.78-1.26-1.35a1.47,1.47,0,0,1,1.64-1.4,2.3,2.3,0,0,1,1.17.3l-.21.63a1.84,1.84,0,0,0-1-.28c-.51,0-.79.3-.79.65s.28.57.9.81c.83.31,1.25.73,1.25,1.44s-.65,1.42-1.78,1.42a2.82,2.82,0,0,1-1.34-.32Z" transform="translate(-21.63 -72.59)"/><path class="cls-1" d="M243.28,162.43a1.52,1.52,0,0,0,1.63,1.65,3.1,3.1,0,0,0,1.32-.24l.15.62a3.88,3.88,0,0,1-1.59.29,2.21,2.21,0,0,1-2.34-2.4,2.31,2.31,0,0,1,2.24-2.57,2,2,0,0,1,2,2.25,3.74,3.74,0,0,1,0,.4Zm2.54-.62a1.24,1.24,0,0,0-1.2-1.41,1.44,1.44,0,0,0-1.33,1.41Z" transform="translate(-21.63 -72.59)"/><path class="cls-1" d="M248.35,161.38c0-.56,0-1,0-1.49h.76l0,.94h0a1.43,1.43,0,0,1,1.32-1.05.88.88,0,0,1,.24,0v.82a1.23,1.23,0,0,0-.29,0,1.21,1.21,0,0,0-1.16,1.11,2.46,2.46,0,0,0,0,.4v2.54h-.86Z" transform="translate(-21.63 -72.59)"/><path class="cls-1" d="M252.77,159.89l.94,2.68c.15.43.28.82.38,1.22h0c.11-.4.25-.79.4-1.22l.93-2.68h.91l-1.88,4.76h-.82l-1.81-4.76Z" transform="translate(-21.63 -72.59)"/><path class="cls-1" d="M258.18,162.43a1.52,1.52,0,0,0,1.63,1.65,3.1,3.1,0,0,0,1.32-.24l.15.62a3.86,3.86,0,0,1-1.58.29,2.21,2.21,0,0,1-2.35-2.4,2.31,2.31,0,0,1,2.24-2.57,2,2,0,0,1,2,2.25,3.29,3.29,0,0,1,0,.4Zm2.54-.62a1.24,1.24,0,0,0-1.2-1.41,1.44,1.44,0,0,0-1.33,1.41Z" transform="translate(-21.63 -72.59)"/><path class="cls-1" d="M263.25,161.38c0-.56,0-1,0-1.49H264l0,.94h0a1.44,1.44,0,0,1,1.32-1.05.83.83,0,0,1,.24,0v.82a1.17,1.17,0,0,0-.29,0,1.21,1.21,0,0,0-1.16,1.11,2.46,2.46,0,0,0,0,.4v2.54h-.86Z" transform="translate(-21.63 -72.59)"/><path class="cls-1" d="M267,163.77a2.2,2.2,0,0,0,1.14.34c.63,0,.92-.31.92-.71s-.24-.64-.88-.87c-.86-.31-1.26-.78-1.26-1.35a1.47,1.47,0,0,1,1.64-1.4,2.33,2.33,0,0,1,1.17.3l-.22.63a1.8,1.8,0,0,0-1-.28c-.51,0-.8.3-.8.65s.29.57.91.81c.83.31,1.25.73,1.25,1.44s-.65,1.42-1.78,1.42a2.76,2.76,0,0,1-1.34-.32Z" transform="translate(-21.63 -72.59)"/><g id="Bird"><path class="cls-1" d="M79.08,168.89s1.63-22.2-7-33.7c-7.13-9.53-13.72-11.5-17.25-12.82-8.05-3-17.79.75-17.79.75a16.31,16.31,0,0,0-10.48,15.4c-.06,8.58,1.9,13.75,1.9,13.75s2.23,4.65,8.89,8.21c5,2.69,57.59,29.31,57.48,29.41A18.28,18.28,0,0,0,86,180.37L58.17,166.1l-18.76-9.59s-7.15-3.39-7.27-7.27c-.1-3,0,.26,1.38,2s4.95,3.34,7.69,4.72,46.55,23.83,46.55,23.83a14.24,14.24,0,0,0-6.67-8.42c-3.63-1.9-35.55-18.3-35.55-18.3s-7.1-3.23-9-5.55c-1.55-1.88-4.79-4.46-2.62-12.27,1.26-4.51,5.18-7.35,8.87-8.46a18.06,18.06,0,0,1,12.77,1.52,18.89,18.89,0,0,1,4.5,3.94,42.77,42.77,0,0,1,6.82,10.25c1.88,3.94,1.94,9.92,2,10.15.14,3.12.08,11,.08,11l4.43,2.28c.39-21.67-1.25-20.89-1.25-20.89s.8.49,1.77,4.08c1.16,4.29.79,17.49.79,17.49Z" transform="translate(-21.63 -72.59)"/><path class="cls-2" d="M67.5,162.64s-25.4-13-26.2-13.55-6.57-3.44-6.44-8.75,1.41-8.93,6.53-11.46,11.6-.15,12.47.31c1.69.92,7.74,5.44,11.41,13.55a26.38,26.38,0,0,1,2,8.3A99.79,99.79,0,0,1,67.5,162.64Z" transform="translate(-21.63 -72.59)"/><path class="cls-1" d="M101.14,199.55c.07.23-48.44-24.75-62.79-32-5.45-2.75-11.36-6.55-14.07-12-1.18-2.39-2.11-5.23-2.43-10.56-.49-8,0-16.82,0-24.27.06-6.8.89-13.56,4.78-19.13,2-2.83,4.4-5.38,7.23-6.6,7.84-3.38,11.64-2.7,16.92-2.34a13.82,13.82,0,0,1,5.8,2s1.22,1.35,1.25,1.4a2.07,2.07,0,0,0,1.45,1.09c2.38.46,8.29,2.29,11.89,7.35.76,1.06,2.41,6.19,1.47,13.45,0,0,.12.92-1.8,0-.1,0-3.82-2.74-5.08-2.93s-11.55-.57-11.55-.57-.65-.12-.63-1.32-.67-8.52.56-11.12c0,0-7.62-.67-10.46,2.69-.1.12-2.7,3.2.8,9.33,2.46,4.3,9.37,6.29,9.37,6.29l0-4.12a1.24,1.24,0,0,1,.86-.61c.39,0,6.94.31,10.12.48a12,12,0,0,1,3.31.65h0s-1.08,4.64-7.19,6.91-15.29-.34-19.45-5.16a17.8,17.8,0,0,1-4.21-10.83c0-4.24,2.46-10.29,13.44-10.48.06,0,.57-.94-.19-1-.4,0-2.76,0-4.92.07a20.17,20.17,0,0,0-13.51,5.54,18.94,18.94,0,0,0-5.67,11.61,156.84,156.84,0,0,0-.79,16.28c0,4.07-.34,7.91-.37,12-.09,12.48,4.38,15.66,11.09,19.82,1.32.65,58.08,29.81,58.08,29.81A16.58,16.58,0,0,1,101.14,199.55Z" transform="translate(-21.63 -72.59)"/><path class="cls-2" d="M67.6,183.91s.15,23.22,0,36.84c0,3.61-4.5,10.25-4.5,10.25l0-49.33Z" transform="translate(-21.63 -72.59)"/><path class="cls-1" d="M73.36,186.88s.07,15.12.07,24.46c0,3.39-4.53,9.79-4.53,9.79V184.58Z" transform="translate(-21.63 -72.59)"/><path class="cls-1" d="M79.18,189.82s-.08,7,0,13.12c0,2.93-4.5,8.6-4.5,8.6l0-24Z" transform="translate(-21.63 -72.59)"/><circle class="cls-1" cx="26.47" cy="35.12" r="2.9"/><path class="cls-1" d="M52.06,90.69c2.42.77.82-.47.39-.75a20.35,20.35,0,0,1-7.85-9.28A42.66,42.66,0,0,0,41,73.27c-.74-1.5-.74-.1-.74.29,0,2.56.52,10.94,4.78,13.75A20.86,20.86,0,0,0,52.06,90.69Z" transform="translate(-21.63 -72.59)"/><path class="cls-2" d="M48.62,90.56c.11,0,.13-.15,0-.19-3-1-6.48-2-9.07-5.71-2.06-3-3.17-4.09-3.75-4.48a.29.29,0,0,0-.45.32c.44,1.76,2.14,7.53,5.57,8.67A34.52,34.52,0,0,0,48.62,90.56Z" transform="translate(-21.63 -72.59)"/><path class="cls-1" d="M43,90.69a.07.07,0,0,0,0-.13c-1.8-.29-4.63-.4-6.9-2.54-2.54-2.4-3.3-2.59-3.5-2.56a.07.07,0,0,0,0,.09c.24.53,2.37,5,5.12,5.31A23.77,23.77,0,0,0,43,90.69Z" transform="translate(-21.63 -72.59)"/><path class="cls-2" d="M37.42,91.88a.08.08,0,0,1,0,.16,10.31,10.31,0,0,0-6.72,2.54c-2.47,2.32-3.25,2.57-3.49,2.55a.07.07,0,0,1-.06-.1c.28-.61,2.4-5,5.12-5.3A23.09,23.09,0,0,1,37.42,91.88Z" transform="translate(-21.63 -72.59)"/></g><path class="cls-2" d="M92.06,140v14.23H87.75V123h6.33c4.86,0,7.53,2,7.53,7.39v1.29c0,4.57-1.82,6-3.27,6.54,2,.81,3,2.2,3,6.41a82.76,82.76,0,0,0,.3,9.62H97.44c-.42-1.91-.34-7.1-.34-9.33,0-3.91-.54-4.9-3.54-4.9Zm0-3.5H93.6c2.8,0,3.69-1.27,3.69-4.65v-1.2c0-2.6-.63-4.17-3.61-4.17H92.06Z" transform="translate(-21.63 -72.59)"/><path class="cls-2" d="M109.54,145.17l-1.29,9h-4.38L109.09,123h6.1l5.42,31.25h-4.5l-1.43-9Zm10.41-29L114,120.92h-4.08l4.66-4.72Zm-5.79,25.12c-.9-6-1.64-11.12-2-14.41H112c-.13,2.5-1.17,9.34-1.91,14.41Z" transform="translate(-21.63 -72.59)"/><path class="cls-2" d="M130.66,147.41c0,3.9-.48,7.17-5.84,7.17a16.53,16.53,0,0,1-2.34-.19V150.8a10.56,10.56,0,0,0,1.5.1c1.73,0,2.37-.5,2.37-3V123h4.31Z" transform="translate(-21.63 -72.59)"/><path class="cls-1" d="M141.36,123h4.3v12.6h5.9V123h4.31v31.25h-4.31v-14.8h-5.9v14.8h-4.3Z" transform="translate(-21.63 -72.59)"/><path class="cls-1" d="M174.59,131v15.07c0,5.78-2.49,8.58-7.66,8.58s-7.24-3-7.24-8.51V131c0-5.7,2.84-8.46,7.52-8.46S174.59,125.44,174.59,131Zm-10.51-.34v15.93c0,3,1.11,4.27,3,4.27s3.07-1.23,3.07-4.38V130.64c0-2.83-.94-4.3-3.08-4.3S164.08,127.7,164.08,130.66Z" transform="translate(-21.63 -72.59)"/><path class="cls-1" d="M181.46,145.18v1.88c0,2.59.85,4,2.89,4s2.76-1.71,2.76-4.33c0-3.48-.78-4.68-4.2-7.29s-5.25-4.29-5.25-8.91c0-4,1.26-8,6.74-8s6.5,3.7,6.5,7.33v1.58h-4.27v-1.47c0-2.35-.44-3.82-2.32-3.82s-2.34,1.58-2.34,3.81c0,2.51.5,3.6,3.37,5.67,4.66,3.38,6.11,5.32,6.11,10.53,0,4.41-1.47,8.53-7.22,8.53s-7.08-3.52-7.08-7.64v-1.83Z" transform="translate(-21.63 -72.59)"/><path class="cls-1" d="M197.78,126.85H192.6V123h14.66v3.89h-5.18v27.36h-4.3Z" transform="translate(-21.63 -72.59)"/><path class="cls-1" d="M213.84,123v31.25h-4.31V123Z" transform="translate(-21.63 -72.59)"/><path class="cls-1" d="M218.38,154.21V123h5c1.47,5,5.57,20.82,6,22.85h.06c-.21-4-.24-8.39-.24-13.51V123h4v31.25h-4.85c-1.31-4.63-5.72-21.79-6.16-23.6h-.05c.23,3.78.25,8.33.25,14v9.64Z" transform="translate(-21.63 -72.59)"/><path class="cls-1" d="M251.56,154.21h-3.38a22,22,0,0,1-.25-2.5c-.85,2.18-2.7,2.94-4.78,2.94-4.61,0-6.1-3.27-6.1-8.44V131.13c0-5.11,2.07-8.61,7.3-8.61,6.26,0,7.11,4.42,7.11,8v.92h-4.31v-1.09c0-1.87-.26-4-2.81-4-2,0-2.9,1.29-2.9,4.23v16c0,2.74.78,4.33,2.8,4.33,2.48,0,3-2.13,3-5.67v-4.73h-3.13V136.9h7.45Z" transform="translate(-21.63 -72.59)"/><path class="cls-1" d="M259.67,123v24c0,2.41.83,3.9,3,3.9s2.89-1.55,2.89-3.89V123h4.32v23.9c0,4.88-2.26,7.79-7.29,7.79-4.83,0-7.19-2.58-7.19-7.75V123Z" transform="translate(-21.63 -72.59)"/></svg>