<?xml version="1.0" encoding="UTF-8" standalone="no"?>
<svg
   xmlns:dc="http://purl.org/dc/elements/1.1/"
   xmlns:cc="http://creativecommons.org/ns#"
   xmlns:rdf="http://www.w3.org/1999/02/22-rdf-syntax-ns#"
   xmlns:svg="http://www.w3.org/2000/svg"
   xmlns="http://www.w3.org/2000/svg"
   xmlns:sodipodi="http://sodipodi.sourceforge.net/DTD/sodipodi-0.dtd"
   xmlns:inkscape="http://www.inkscape.org/namespaces/inkscape"
   viewBox="0 0 219.05908 110.21854"
   id="svg14"
   height="110.21854"
   width="219.05908"
   version="1.1"
   sodipodi:docname="alpodgroup.svg"
   inkscape:version="0.92.4 (5da689c313, 2019-01-14)">
  <sodipodi:namedview
     pagecolor="#ffffff"
     bordercolor="#666666"
     borderopacity="1"
     objecttolerance="10"
     gridtolerance="10"
     guidetolerance="10"
     inkscape:pageopacity="0"
     inkscape:pageshadow="2"
     inkscape:window-width="1920"
     inkscape:window-height="1017"
     id="namedview11"
     showgrid="false"
     fit-margin-top="2"
     fit-margin-left="2"
     fit-margin-right="2"
     fit-margin-bottom="2"
     inkscape:zoom="1.2407105"
     inkscape:cx="-221.04371"
     inkscape:cy="29.699073"
     inkscape:window-x="1912"
     inkscape:window-y="-8"
     inkscape:window-maximized="1"
     inkscape:current-layer="svg14" />
  <metadata
     id="metadata20">
    <rdf:RDF>
      <cc:Work
         rdf:about="">
        <dc:format>image/svg+xml</dc:format>
        <dc:type
           rdf:resource="http://purl.org/dc/dcmitype/StillImage" />
        <dc:title></dc:title>
      </cc:Work>
    </rdf:RDF>
  </metadata>
  <defs
     id="defs18" />
  <path
     inkscape:connector-curvature="0"
     d="m 117.08079,22.28816 -0.19213,2.33622 c 2.57298,-3.83938 9.65708,-8.98035 13.27591,-10.96288 3.61882,-1.98252 7.58176,-2.97396 11.91603,-2.97396 4.73334,0 9.10919,1.29031 13.14063,3.88655 4.03174,2.59624 6.67275,6.11702 8.88477,10.49342 2.21832,4.38791 2.53738,9.22715 2.53738,14.68728 0,8.27673 -1.70979,14.23024 -6.67732,19.76877 -4.95318,5.52302 -10.70277,9.289929 -18.25697,9.289929 -8.2972,0 -15.24587,-3.713469 -20.8323,-11.156349 l 0.25559,4.91057 c 2.95834,4.295725 1.71469,6.77437 6.12882,9.125283 4.41962,2.353647 9.35675,3.524659 14.8194,3.524659 10.3749,0 18.54831,-3.94956 24.54766,-11.848572 5.02233,-6.65609 7.54035,-14.71246 7.54035,-24.15359 0,-9.92894 -3.04087,-18.26857 -9.1366,-25.05046 C 158.95014,7.38314 151.32727,4 142.16312,4 c -5.54517,0 -10.53994,1.25897 -14.99815,3.76075 -4.45822,2.50189 -7.23577,10.01143 -10.08418,14.52741 z"
     style="fill:#ff6600;fill-rule:evenodd;stroke:none;stroke-width:0.75940305;stroke-linecap:butt;stroke-linejoin:miter;stroke-dasharray:none"
     id="path169" />
  <path
     inkscape:connector-curvature="0"
     d="m 122.39036,24.8877 -1.32365,3.11321 c 1.83122,-2.7855 8.7769,-5.07477 11.37618,-6.52483 2.59928,-1.44995 5.45399,-2.18604 8.58366,-2.20814 3.41772,-0.024 6.5863,0.88535 9.51535,2.73958 2.9292,1.85434 5.20878,4.36078 6.83875,7.50817 1.63011,3.1589 2.46903,6.70954 2.50683,10.65226 0.0574,5.97664 -1.68303,10.96584 -5.23146,14.99072 -3.53851,4.01325 -8.03988,6.045 -13.4945,6.0834 -5.99116,0.0423 -11.03443,-2.60387 -15.11989,-7.94982 l -0.16173,4.78478 c 2.16587,3.08676 1.66555,3.64282 4.86909,5.31792 3.20763,1.67704 6.78063,2.49745 10.72513,2.46964 7.49137,-0.0529 13.36583,-2.94638 17.64295,-8.68078 3.58024,-4.83184 5.34264,-10.66206 5.27713,-17.47939 -0.069,-7.16964 -2.32242,-13.17614 -6.77102,-18.04227 -4.43854,-4.86613 -9.96639,-7.27026 -16.58339,-7.22366 -4.00419,0.0283 -7.60192,0.96273 -10.80372,2.792 -3.20181,1.82927 -5.57336,4.56566 -7.84571,7.65721 z"
     style="fill:#ff6600;fill-rule:evenodd;stroke:none;stroke-width:1.33957136"
     id="path171" />
  <path
     inkscape:connector-curvature="0"
     d="m 132.63172,31.77796 -0.77216,1.59956 c 1.06807,-1.43115 5.11919,-2.60752 6.63528,-3.35249 1.51611,-0.74509 3.18103,-1.12327 5.00642,-1.13455 1.99344,-0.0124 3.84151,0.45486 5.55006,1.40756 1.70838,0.95281 3.03802,2.24061 3.98876,3.85783 0.95072,1.62304 1.44003,3.44741 1.46207,5.47324 0.0336,3.07081 -0.98175,5.63435 -3.05141,7.70233 -2.06383,2.06218 -4.68924,3.10603 -7.87074,3.12586 -3.49441,0.0216 -6.43589,-1.33795 -8.81879,-4.0847 l -0.0943,2.45836 c 1.26333,1.58611 0.97135,1.87177 2.84006,2.7324 1.87075,0.86177 3.95475,1.28325 6.25543,1.26901 4.36939,-0.0271 7.79562,-1.51388 10.29032,-4.46027 2.08824,-2.48263 3.11614,-5.47836 3.07803,-8.98114 -0.0401,-3.68384 -1.35468,-6.77004 -3.94923,-9.27033 -2.58888,-2.5003 -5.81305,-3.73558 -9.67251,-3.71165 -2.33533,0.0146 -4.43381,0.49475 -6.30126,1.43457 -1.8676,0.93993 -3.25078,2.3459 -4.57601,3.93441 z"
     style="fill:#ff6600;fill-rule:evenodd;stroke:none;stroke-width:1.33957136"
     id="path173" />
  <path
     d="m 35.746582,8.38299 9.296387,62.451664 H 28.41748 L 27.607422,59.60956 H 21.782715 L 20.818359,70.834654 H 4 L 12.254883,8.38299 Z m -8.602051,40.15577 q -1.234375,-10.60792 -2.46875,-26.1919 -2.46875,17.89844 -3.085937,26.1919 z"
     style="font-size:79px;font-family:Impact;fill:#ff6600"
     id="path175"
     inkscape:connector-curvature="0" />
  <path
     d="m 64.060059,8.38299 v 49.95362 h 9.875 V 70.834654 H 47.820312 V 8.38299 Z"
     style="font-size:79px;font-family:Impact;fill:#ff6600"
     id="path177"
     inkscape:connector-curvature="0" />
  <path
     d="m 77.908203,8.38299 h 16.355469 q 6.634768,0 10.183598,1.04151 3.5874,1.0415 5.36181,3.00879 1.81299,1.96728 2.43018,4.7832 0.65576,2.77734 0.65576,8.64062 v 5.43897 q 0,5.979 -1.23438,8.71777 -1.23437,2.73877 -4.55175,4.20459 -3.27881,1.46582 -8.602054,1.46582 H 94.147949 V 70.834654 H 77.908203 Z m 16.239746,10.68506 v 15.89258 q 0.694336,0.0386 1.195801,0.0386 2.237305,0 3.085937,-1.08008 0.887208,-1.11865 0.887208,-4.59033 v -5.13037 q 0,-3.20166 -1.00293,-4.16602 -1.00293,-0.96435 -4.166016,-0.96435 z"
     style="font-size:79px;font-family:Impact;fill:#ff6600"
     id="path179"
     inkscape:connector-curvature="0" />
  <path
     d="m 179.44922,8.38299 h 12.15088 q 11.76513,0 15.89258,1.08008 4.16601,1.08008 6.32617,3.54883 2.16015,2.46875 2.70019,5.51611 0.54004,3.00879 0.54004,11.88086 v 21.87159 q 0,8.40917 -0.81006,11.26367 -0.77148,2.81591 -2.73877,4.436032 -1.96728,1.581543 -4.86035,2.237305 -2.89306,0.617187 -8.71777,0.617187 h -20.48291 z m 16.23974,10.68506 v 41.08154 q 3.51026,0 4.32032,-1.38867 0.81006,-1.42724 0.81006,-7.67627 V 26.82147 q 0,-4.24316 -0.27002,-5.43896 -0.27002,-1.19581 -1.23438,-1.73584 -0.96435,-0.57862 -3.62598,-0.57862 z"
     style="font-size:79px;font-family:Impact;fill:#ff6600;fill-opacity:1"
     id="path181"
     inkscape:connector-curvature="0" />
  <path
     id="path185"
     style="fill:#ff6600;fill-rule:evenodd;stroke:none;stroke-width:1.33957136"
     d="m 122.39036,24.8877 -1.32365,3.11321 c 1.83122,-2.7855 8.7769,-5.07477 11.37618,-6.52483 2.59928,-1.44995 5.45399,-2.18604 8.58366,-2.20814 3.41772,-0.024 6.5863,0.88535 9.51535,2.73958 2.9292,1.85434 5.20878,4.36078 6.83875,7.50817 1.63011,3.1589 2.46903,6.70954 2.50683,10.65226 0.0574,5.97664 -1.68303,10.96584 -5.23146,14.99072 -3.53851,4.01325 -8.03988,6.045 -13.4945,6.0834 -5.99116,0.0423 -11.03443,-2.60387 -15.11989,-7.94982 l -0.16173,4.78478 c 2.16587,3.08676 1.66555,3.64282 4.86909,5.31792 3.20763,1.67704 6.78063,2.49745 10.72513,2.46964 7.49137,-0.0529 13.36583,-2.94638 17.64295,-8.68078 3.58024,-4.83184 5.34264,-10.66206 5.27713,-17.47939 -0.069,-7.16964 -2.32242,-13.17614 -6.77102,-18.04227 -4.43854,-4.86613 -9.96639,-7.27026 -16.58339,-7.22366 -4.00419,0.0283 -7.60192,0.96273 -10.80372,2.792 -3.20181,1.82927 -5.57336,4.56566 -7.84571,7.65721 z"
     inkscape:connector-curvature="0" />
  <path
     id="path187"
     style="fill:#ff6600;fill-rule:evenodd;stroke:none;stroke-width:1.33957136"
     d="m 132.63172,31.77796 -0.77216,1.59956 c 1.06807,-1.43115 5.11919,-2.60752 6.63528,-3.35249 1.51611,-0.74509 3.18103,-1.12327 5.00642,-1.13455 1.99344,-0.0124 3.84151,0.45486 5.55006,1.40756 1.70838,0.95281 3.03802,2.24061 3.98876,3.85783 0.95072,1.62304 1.44003,3.44741 1.46207,5.47324 0.0336,3.07081 -0.98175,5.63435 -3.05141,7.70233 -2.06383,2.06218 -4.68924,3.10603 -7.87074,3.12586 -3.49441,0.0216 -6.43589,-1.33795 -8.81879,-4.0847 l -0.0943,2.45836 c 1.26333,1.58611 0.97135,1.87177 2.84006,2.7324 1.87075,0.86177 3.95475,1.28325 6.25543,1.26901 4.36939,-0.0271 7.79562,-1.51388 10.29032,-4.46027 2.08824,-2.48263 3.11614,-5.47836 3.07803,-8.98114 -0.0401,-3.68384 -1.35468,-6.77004 -3.94923,-9.27033 -2.58888,-2.5003 -5.81305,-3.73558 -9.67251,-3.71165 -2.33533,0.0146 -4.43381,0.49475 -6.30126,1.43457 -1.8676,0.93993 -3.25078,2.3459 -4.57601,3.93441 z"
     inkscape:connector-curvature="0" />
  <path
     id="path71"
     style="fill:#ffd42a;fill-rule:evenodd;stroke:none;stroke-width:0.75940305;stroke-linecap:butt;stroke-linejoin:miter;stroke-dasharray:none"
     d="m 115.08079,20.28816 -0.19213,2.33622 c 2.57298,-3.83938 9.65708,-8.98035 13.27591,-10.96288 3.61882,-1.98252 7.58176,-2.97396 11.91603,-2.97396 4.73334,0 9.10919,1.29031 13.14063,3.88655 4.03174,2.59624 6.67275,6.11702 8.88477,10.49342 2.21832,4.38791 2.53738,9.22715 2.53738,14.68728 0,8.27673 -1.70979,14.23024 -6.67732,19.76877 -4.95318,5.52302 -10.70277,9.28993 -18.25697,9.28993 -8.2972,0 -15.24587,-3.71347 -20.8323,-11.15635 l 0.25559,4.91057 c 2.95834,4.29572 1.71469,6.77437 6.12882,9.125283 4.41962,2.353647 9.35675,3.524659 14.8194,3.524659 10.3749,0 18.54831,-3.94956 24.54766,-11.848572 5.02233,-6.65609 7.54035,-14.71246 7.54035,-24.15359 0,-9.92894 -3.04087,-18.26857 -9.1366,-25.05046 C 156.95014,5.38314 149.32727,2 140.16312,2 c -5.54517,0 -10.53994,1.25897 -14.99815,3.76075 -4.45822,2.50189 -7.23577,10.01143 -10.08418,14.52741 z"
     inkscape:connector-curvature="0" />
  <path
     id="path73"
     style="fill:#ffd42a;fill-rule:evenodd;stroke:none;stroke-width:1.33957136"
     d="m 120.39036,22.8877 -1.32365,3.11321 c 1.83122,-2.7855 8.7769,-5.07477 11.37618,-6.52483 2.59928,-1.44995 5.45399,-2.18604 8.58366,-2.20814 3.41772,-0.024 6.5863,0.88535 9.51535,2.73958 2.9292,1.85434 5.20878,4.36078 6.83875,7.50817 1.63011,3.1589 2.46903,6.70954 2.50683,10.65226 0.0574,5.97664 -1.68303,10.96584 -5.23146,14.99072 -3.53851,4.01325 -8.03988,6.045 -13.4945,6.0834 -5.99116,0.0423 -11.03443,-2.60387 -15.11989,-7.94982 l -0.16173,4.78478 c 2.16587,3.08676 1.66555,3.64282 4.86909,5.31792 3.20763,1.67704 6.78063,2.49745 10.72513,2.46964 7.49137,-0.0529 13.36583,-2.94638 17.64295,-8.68078 3.58024,-4.83184 5.34264,-10.66206 5.27713,-17.47939 -0.069,-7.16964 -2.32242,-13.17614 -6.77102,-18.04227 -4.43854,-4.86613 -9.96639,-7.27026 -16.58339,-7.22366 -4.00419,0.0283 -7.60192,0.96273 -10.80372,2.792 -3.20181,1.82927 -5.57336,4.56566 -7.84571,7.65721 z"
     inkscape:connector-curvature="0" />
  <path
     id="path75"
     style="fill:#ffd42a;fill-rule:evenodd;stroke:none;stroke-width:1.33957136"
     d="m 130.63172,29.77796 -0.77216,1.59956 c 1.06807,-1.43115 5.11919,-2.60752 6.63528,-3.35249 1.51611,-0.74509 3.18103,-1.12327 5.00642,-1.13455 1.99344,-0.0124 3.84151,0.45486 5.55006,1.40756 1.70838,0.95281 3.03802,2.24061 3.98876,3.85783 0.95072,1.62304 1.44003,3.44741 1.46207,5.47324 0.0336,3.07081 -0.98175,5.63435 -3.05141,7.70233 -2.06383,2.06218 -4.68924,3.10603 -7.87074,3.12586 -3.49441,0.0216 -6.43589,-1.33795 -8.81879,-4.0847 l -0.0943,2.45836 c 1.26333,1.58611 0.97135,1.87177 2.84006,2.7324 1.87075,0.86177 3.95475,1.28325 6.25543,1.26901 4.36939,-0.0271 7.79562,-1.51388 10.29032,-4.46027 2.08824,-2.48263 3.11614,-5.47836 3.07803,-8.98114 -0.0401,-3.68384 -1.35468,-6.77004 -3.94923,-9.27033 -2.58888,-2.5003 -5.81305,-3.73558 -9.67251,-3.71165 -2.33533,0.0146 -4.43381,0.49475 -6.30126,1.43457 -1.8676,0.93993 -3.25078,2.3459 -4.57601,3.93441 z"
     inkscape:connector-curvature="0" />
  <path
     inkscape:connector-curvature="0"
     id="path77"
     style="font-size:79px;font-family:Impact;fill:#ffd42a"
     d="m 33.746582,6.38299 9.296387,62.451664 H 26.41748 L 25.607422,57.60956 H 19.782715 L 18.818359,68.834654 H 2 L 10.254883,6.38299 Z m -8.602051,40.15577 q -1.234375,-10.60792 -2.46875,-26.1919 -2.46875,17.89844 -3.085937,26.1919 z" />
  <path
     inkscape:connector-curvature="0"
     id="path79"
     style="font-size:79px;font-family:Impact;fill:#ffd42a"
     d="m 62.060059,6.38299 v 49.95362 h 9.875 V 68.834654 H 45.820312 V 6.38299 Z" />
  <path
     inkscape:connector-curvature="0"
     id="path81"
     style="font-size:79px;font-family:Impact;fill:#ffd42a"
     d="m 75.908203,6.38299 h 16.355469 q 6.634765,0 10.183598,1.04151 3.5874,1.0415 5.36181,3.00879 1.81299,1.96728 2.43018,4.7832 0.65576,2.77734 0.65576,8.64062 v 5.43897 q 0,5.979 -1.23438,8.71777 -1.23437,2.73877 -4.55175,4.20459 -3.27881,1.46582 -8.602054,1.46582 H 92.147949 V 68.834654 H 75.908203 Z m 16.239746,10.68506 v 15.89258 q 0.694336,0.0386 1.195801,0.0386 2.237305,0 3.085937,-1.08008 0.887208,-1.11865 0.887208,-4.59033 v -5.13037 q 0,-3.20166 -1.00293,-4.16602 -1.00293,-0.96435 -4.166016,-0.96435 z" />
  <path
     inkscape:connector-curvature="0"
     id="path83"
     style="font-size:79px;font-family:Impact;fill:#ffd42a;fill-opacity:1"
     d="m 177.44922,6.38299 h 12.15088 q 11.76513,0 15.89258,1.08008 4.16601,1.08008 6.32617,3.54883 2.16015,2.46875 2.70019,5.51611 0.54004,3.00879 0.54004,11.88086 v 21.87159 q 0,8.40917 -0.81006,11.26367 -0.77148,2.81591 -2.73877,4.43603 -1.96728,1.581545 -4.86035,2.237307 -2.89306,0.617187 -8.71777,0.617187 h -20.48291 z m 16.23974,10.68506 v 41.08154 q 3.51026,0 4.32032,-1.38867 0.81006,-1.42724 0.81006,-7.67627 V 24.82147 q 0,-4.24316 -0.27002,-5.43896 -0.27002,-1.19581 -1.23438,-1.73584 -0.96435,-0.57862 -3.62598,-0.57862 z" />
  <path
     inkscape:connector-curvature="0"
     d="m 115.08079,20.28816 -0.19213,2.33622 c 2.57298,-3.83938 9.65708,-8.98035 13.27591,-10.96288 3.61882,-1.98252 7.58176,-2.97396 11.91603,-2.97396 4.73334,0 9.10919,1.29031 13.14063,3.88655 4.03174,2.59624 6.67275,6.11702 8.88477,10.49342 2.21832,4.38791 2.53738,9.22715 2.53738,14.68728 0,8.27673 -1.70979,14.23024 -6.67732,19.76877 -4.95318,5.52302 -10.70277,9.28993 -18.25697,9.28993 -8.2972,0 -15.24587,-3.71347 -20.8323,-11.15635 l 0.25559,4.91057 c 2.95834,4.29572 1.71469,6.77437 6.12882,9.125283 4.41962,2.353647 9.35675,3.524659 14.8194,3.524659 10.3749,0 18.54831,-3.94956 24.54766,-11.848572 5.02233,-6.65609 7.54035,-14.71246 7.54035,-24.15359 0,-9.92894 -3.04087,-18.26857 -9.1366,-25.05046 C 156.95014,5.38314 149.32727,2 140.16312,2 c -5.54517,0 -10.53994,1.25897 -14.99815,3.76075 -4.45822,2.50189 -7.23577,10.01143 -10.08418,14.52741 z"
     style="fill:#ffd42a;fill-rule:evenodd;stroke:none;stroke-width:0.75940305;stroke-linecap:butt;stroke-linejoin:miter;stroke-dasharray:none"
     id="path57" />
  <path
     inkscape:connector-curvature="0"
     d="m 120.39036,22.8877 -1.32365,3.11321 c 1.83122,-2.7855 8.7769,-5.07477 11.37618,-6.52483 2.59928,-1.44995 5.45399,-2.18604 8.58366,-2.20814 3.41772,-0.024 6.5863,0.88535 9.51535,2.73958 2.9292,1.85434 5.20878,4.36078 6.83875,7.50817 1.63011,3.1589 2.46903,6.70954 2.50683,10.65226 0.0574,5.97664 -1.68303,10.96584 -5.23146,14.99072 -3.53851,4.01325 -8.03988,6.045 -13.4945,6.0834 -5.99116,0.0423 -11.03443,-2.60387 -15.11989,-7.94982 l -0.16173,4.78478 c 2.16587,3.08676 1.66555,3.64282 4.86909,5.31792 3.20763,1.67704 6.78063,2.49745 10.72513,2.46964 7.49137,-0.0529 13.36583,-2.94638 17.64295,-8.68078 3.58024,-4.83184 5.34264,-10.66206 5.27713,-17.47939 -0.069,-7.16964 -2.32242,-13.17614 -6.77102,-18.04227 -4.43854,-4.86613 -9.96639,-7.27026 -16.58339,-7.22366 -4.00419,0.0283 -7.60192,0.96273 -10.80372,2.792 -3.20181,1.82927 -5.57336,4.56566 -7.84571,7.65721 z"
     style="fill:#ffd42a;fill-rule:evenodd;stroke:none;stroke-width:1.33957136"
     id="path59" />
  <path
     inkscape:connector-curvature="0"
     d="m 130.63172,29.77796 -0.77216,1.59956 c 1.06807,-1.43115 5.11919,-2.60752 6.63528,-3.35249 1.51611,-0.74509 3.18103,-1.12327 5.00642,-1.13455 1.99344,-0.0124 3.84151,0.45486 5.55006,1.40756 1.70838,0.95281 3.03802,2.24061 3.98876,3.85783 0.95072,1.62304 1.44003,3.44741 1.46207,5.47324 0.0336,3.07081 -0.98175,5.63435 -3.05141,7.70233 -2.06383,2.06218 -4.68924,3.10603 -7.87074,3.12586 -3.49441,0.0216 -6.43589,-1.33795 -8.81879,-4.0847 l -0.0943,2.45836 c 1.26333,1.58611 0.97135,1.87177 2.84006,2.7324 1.87075,0.86177 3.95475,1.28325 6.25543,1.26901 4.36939,-0.0271 7.79562,-1.51388 10.29032,-4.46027 2.08824,-2.48263 3.11614,-5.47836 3.07803,-8.98114 -0.0401,-3.68384 -1.35468,-6.77004 -3.94923,-9.27033 -2.58888,-2.5003 -5.81305,-3.73558 -9.67251,-3.71165 -2.33533,0.0146 -4.43381,0.49475 -6.30126,1.43457 -1.8676,0.93993 -3.25078,2.3459 -4.57601,3.93441 z"
     style="fill:#ffd42a;fill-rule:evenodd;stroke:none;stroke-width:1.33957136"
     id="path61" />
  <path
     d="m 33.746582,6.38299 9.296387,62.451664 H 26.41748 L 25.607422,57.60956 H 19.782715 L 18.818359,68.834654 H 2 L 10.254883,6.38299 Z m -8.602051,40.15577 q -1.234375,-10.60792 -2.46875,-26.1919 -2.46875,17.89844 -3.085937,26.1919 z"
     style="font-size:79px;font-family:Impact;fill:#ffd42a"
     id="path63"
     inkscape:connector-curvature="0" />
  <path
     d="m 62.060059,6.38299 v 49.95362 h 9.875 V 68.834654 H 45.820312 V 6.38299 Z"
     style="font-size:79px;font-family:Impact;fill:#ffd42a"
     id="path65"
     inkscape:connector-curvature="0" />
  <path
     d="m 75.908203,6.38299 h 16.355469 q 6.634765,0 10.183598,1.04151 3.5874,1.0415 5.36181,3.00879 1.81299,1.96728 2.43018,4.7832 0.65576,2.77734 0.65576,8.64062 v 5.43897 q 0,5.979 -1.23438,8.71777 -1.23437,2.73877 -4.55175,4.20459 -3.27881,1.46582 -8.602054,1.46582 H 92.147949 V 68.834654 H 75.908203 Z m 16.239746,10.68506 v 15.89258 q 0.694336,0.0386 1.195801,0.0386 2.237305,0 3.085937,-1.08008 0.887208,-1.11865 0.887208,-4.59033 v -5.13037 q 0,-3.20166 -1.00293,-4.16602 -1.00293,-0.96435 -4.166016,-0.96435 z"
     style="font-size:79px;font-family:Impact;fill:#ffd42a"
     id="path67"
     inkscape:connector-curvature="0" />
  <path
     d="m 177.44922,6.38299 h 12.15088 q 11.76513,0 15.89258,1.08008 4.16601,1.08008 6.32617,3.54883 2.16015,2.46875 2.70019,5.51611 0.54004,3.00879 0.54004,11.88086 v 21.87159 q 0,8.40917 -0.81006,11.26367 -0.77148,2.81591 -2.73877,4.43603 -1.96728,1.581545 -4.86035,2.237307 -2.89306,0.617187 -8.71777,0.617187 h -20.48291 z m 16.23974,10.68506 v 41.08154 q 3.51026,0 4.32032,-1.38867 0.81006,-1.42724 0.81006,-7.67627 V 24.82147 q 0,-4.24316 -0.27002,-5.43896 -0.27002,-1.19581 -1.23438,-1.73584 -0.96435,-0.57862 -3.62598,-0.57862 z"
     style="font-size:79px;font-family:Impact;fill:#ffd42a;fill-opacity:1"
     id="path69"
     inkscape:connector-curvature="0" />
  <path
     inkscape:connector-curvature="0"
     id="path1088"
     style="font-style:normal;font-variant:normal;font-weight:normal;font-stretch:normal;font-size:medium;line-height:25px;font-family:LilyUPC;-inkscape-font-specification:LilyUPC;letter-spacing:0px;word-spacing:0px;fill:#ff6600;fill-opacity:1;stroke:none;stroke-width:1.73519099"
     d="m 48.192548,97.252972 v 8.681608 q 0,0.16404 -1.911442,0.69402 -1.888699,0.52998 -5.734348,0.98425 -3.822883,0.44165 -9.306927,0.44165 -7.213432,-0.0883 -11.400424,-1.47637 -4.164203,-1.38805 -5.893613,-4.16415 -1.729411,-2.78871 -1.729411,-7.33141 0.181984,-3.659397 2.00248,-6.145263 1.820427,-2.498486 5.779833,-3.836058 3.95943,-1.337572 10.399183,-1.388048 6.121199,0 10.672253,0.416415 4.551077,0.403796 4.6876,0.618311 l 1.683903,3.873914 q 0,0 0,0 0,-0.03786 -1.501848,-0.504744 -1.638396,-0.504745 -4.300773,-0.895921 -2.662355,-0.403796 -6.485261,-0.403796 -1.774919,0 -2.798901,0.05047 -9.329693,0.328085 -9.329693,8.214716 0,2.725621 0.432359,4.769835 0.432358,2.031599 2.047988,3.507979 1.615606,1.47637 4.801358,1.65303 3.891156,0 5.848129,-0.39117 1.956949,-0.39118 2.434816,-0.64355 v -6.725722 z" />
  <path
     inkscape:connector-curvature="0"
     id="path1090"
     style="font-style:normal;font-variant:normal;font-weight:normal;font-stretch:normal;font-size:medium;line-height:25px;font-family:LilyUPC;-inkscape-font-specification:LilyUPC;letter-spacing:0px;word-spacing:0px;fill:#ff6600;fill-opacity:1;stroke:none;stroke-width:1.73519099"
     d="m 75.749268,97.152023 12.40164,10.700587 H 76.682235 L 63.347605,94.830198 h 5.324755 q 0.20482,0 1.023982,0.02524 0.819186,0.02524 1.388068,0.02524 7.805079,0 8.009875,-3.772965 0,-1.99374 -1.843168,-3.167272 Q 75.407925,86.76691 72.381462,86.76691 H 63.529636 V 107.8526 H 53.653827 V 83.763677 h 19.956437 q 14.540644,0 14.540644,6.978091 -0.20482,2.851806 -2.958189,4.26509 -2.753393,1.413285 -6.098434,1.842318 -2.548596,0.340703 -3.162986,0.340703 -0.181984,0 -0.181984,-0.03786 z" />
  <path
     inkscape:connector-curvature="0"
     id="path1092"
     style="font-style:normal;font-variant:normal;font-weight:normal;font-stretch:normal;font-size:medium;line-height:25px;font-family:LilyUPC;-inkscape-font-specification:LilyUPC;letter-spacing:0px;word-spacing:0px;fill:#ff6600;fill-opacity:1;stroke:none;stroke-width:1.73519099"
     d="m 109.04029,83.662728 q 6.80386,0 10.96809,1.362809 4.16422,1.350192 5.96188,4.012719 1.79767,2.662527 1.79767,6.725719 0,4.176761 -1.97972,6.914995 -1.97969,2.72562 -6.14392,4.05058 -4.14148,1.32495 -10.69502,1.32495 -6.30323,0 -10.353671,-1.29971 -4.050445,-1.29972 -5.984652,-4.02534 -1.934184,-2.72562 -1.934184,-6.965475 0.06827,-6.056933 4.573819,-9.060163 4.528312,-3.00323 13.789708,-3.041084 z m -8.12363,12.101247 q 0.2503,4.227235 1.61563,6.561675 1.3653,2.33445 6.41698,2.3723 3.73187,0 5.5523,-1.24924 1.84319,-1.26186 2.32106,-3.10418 0.5006,-1.854935 0.5006,-4.479606 0,-2.687764 -0.43233,-4.45437 -0.40962,-1.766605 -2.20728,-3.066323 -1.79766,-1.312335 -5.46128,-1.324953 -5.21097,0 -6.75833,2.35968 -1.54735,2.359681 -1.54735,6.385017 z" />
  <path
     inkscape:connector-curvature="0"
     id="path1094"
     style="font-style:normal;font-variant:normal;font-weight:normal;font-stretch:normal;font-size:medium;line-height:25px;font-family:LilyUPC;-inkscape-font-specification:LilyUPC;letter-spacing:0px;word-spacing:0px;fill:#ff6600;fill-opacity:1;stroke:none;stroke-width:1.73519099"
     d="m 149.1807,108.21854 q -7.532,0 -11.35491,-1.27447 -3.82288,-1.2871 -4.91514,-3.07895 -1.06951,-1.80446 -1.06951,-4.075808 V 83.763677 H 141.899 v 15.975161 q 0,0.0631 -0.0454,0.416412 -0.0454,0.35332 -0.0454,0.61831 0,4.23986 8.48775,4.23986 7.82784,0 7.82784,-4.13891 0,-0.32808 -0.0454,-0.76973 -0.0454,-0.441654 -0.0454,-0.517366 V 83.763677 h 8.28293 v 15.823737 1.135676 q 0,7.49545 -17.13475,7.49545 z" />
  <path
     inkscape:connector-curvature="0"
     id="path1096"
     style="font-style:normal;font-variant:normal;font-weight:normal;font-stretch:normal;font-size:medium;line-height:25px;font-family:LilyUPC;-inkscape-font-specification:LilyUPC;letter-spacing:0px;word-spacing:0px;fill:#ff6600;fill-opacity:1;stroke:none;stroke-width:1.73519099"
     d="m 206.84269,90.741768 q 0,2.965374 -2.16174,4.567937 -2.139,1.589945 -5.55232,2.107309 -3.39052,0.517362 -8.05538,0.517362 h -8.94284 v 9.918234 H 172.2546 V 83.763677 h 19.95641 q 6.84937,0 10.67225,1.526851 3.82291,1.526852 3.95943,5.45124 z M 197.513,90.590345 q -0.0683,-1.829699 -1.84317,-2.826569 -1.75215,-0.996871 -4.59658,-0.996871 h -8.94284 v 8.214716 h 8.66979 q 3.32228,0 5.00616,-0.946396 1.70664,-0.946396 1.70664,-3.44488 z" />
</svg>
