<?xml version="1.0" encoding="utf-8"?><svg version="1.1" id="Layer_1" xmlns="http://www.w3.org/2000/svg" xmlns:xlink="http://www.w3.org/1999/xlink" x="0px" y="0px" viewBox="0 0 122.88 120.54" style="enable-background:new 0 0 122.88 120.54" xml:space="preserve"><style type="text/css">.st0{fill-rule:evenodd;clip-rule:evenodd;}</style><g><path class="st0" d="M95.7,65.5c15.01,0,27.18,12.17,27.18,27.18c0,15.01-12.17,27.18-27.18,27.18 c-15.01,0-27.18-12.17-27.18-27.18C68.52,77.67,80.69,65.5,95.7,65.5L95.7,65.5z M106.04,93.72c0.01,0.25,0.02,0.51,0.02,0.77 c0,0.71-0.04,1.4-0.11,2.08l4.44,2.25c1.45,0.73,1.58,3.91-2.17,2.58l-2.94-1.49c-1.48,4.92-4.91,8.36-8.91,8.36 c-4.02,0-7.47-3.49-8.94-8.45l-3.21,1.46c-3.7,1.75-3.69-1.94-2.13-2.64l4.69-2.13c-0.07-0.67-0.1-1.35-0.1-2.02v0 c0-0.26,0-0.52,0.02-0.78L81.74,92c-1.86-0.64-1.43-3.99,1.87-2.82l3.97,1.37l17.62,0l3.63-1.25c3.54-1.06,3.6,2.23,1.87,2.82 L106.04,93.72L106.04,93.72L106.04,93.72z M96.27,81.37c0.62,0,1.22,0.12,1.79,0.33c0.73-1.61,0.95-2.12,1.77-3.69l1.97,1.28 c0.41,0.27-1.28,2.43-1.81,3.58c1.67,1.44,2.98,3.82,3.65,6.7H88.89c0.67-2.88,1.98-5.26,3.65-6.7c-0.27-0.59-0.5-1.11-0.7-1.57 l-1.24-2.19l1.98-1.28c0.37-0.24,0.7,0.35,0.99,1.15c0.34,0.93,0.64,2.16,0.89,2.72C95.05,81.49,95.65,81.38,96.27,81.37 L96.27,81.37L96.27,81.37z M17.69,26.67c8.1,2.71,19.38,4.38,31.91,4.38s23.81-1.67,31.91-4.38c7.11-2.37,11.51-5.25,11.51-8.06 c0-2.81-4.4-5.69-11.51-8.06c-8.1-2.7-19.38-4.38-31.91-4.38s-23.81,1.67-31.91,4.38C2.6,15.59,2.18,21.5,17.69,26.67L17.69,26.67z M6.24,47.86c0.56,2.62,4.83,5.26,11.45,7.47c8.1,2.71,19.38,4.38,31.91,4.38s23.81-1.67,31.91-4.38 c7.11-2.37,11.51-5.25,11.51-8.06h0.03v-19.3c-2.53,1.73-5.78,3.26-9.59,4.53c-8.73,2.91-20.71,4.72-33.86,4.72 c-13.16,0-25.13-1.8-33.86-4.72c-3.77-1.26-6.98-2.76-9.49-4.47V47.86L6.24,47.86z M63.3,92.54c-4.35,0.44-8.95,0.67-13.7,0.67 c-13.16,0-25.13-1.8-33.86-4.72c-3.77-1.26-6.98-2.76-9.49-4.47v18.49c0.56,2.62,4.83,5.26,11.45,7.47 c8.1,2.7,19.38,4.38,31.91,4.38c7.52,0,14.58-0.6,20.78-1.67c1.56,1.94,3.33,3.7,5.29,5.24c-7.53,1.65-16.49,2.6-26.07,2.6 c-13.16,0-25.13-1.8-33.86-4.72c-4.6-1.54-15.67-6.58-15.67-12.62c0-0.71,0-1.3,0-1.98C0.06,73.69,0,46.15,0,18.61 c0-5.76,6.01-10.65,15.73-13.9C24.46,1.8,36.44,0,49.6,0c13.16,0,25.13,1.8,33.86,4.72c8.85,2.95,14.62,7.27,15.59,12.37 c0.12,0.32,0.18,0.67,0.18,1.04v42.37c-1.2-0.14-2.42-0.21-3.66-0.21c-0.85,0-1.68,0.03-2.51,0.1v-3.74 c-2.53,1.73-5.78,3.26-9.59,4.53c-8.73,2.91-20.71,4.72-33.86,4.72c-13.16,0-25.13-1.8-33.86-4.72c-3.77-1.26-6.98-2.76-9.49-4.47 v18.49c0.56,2.62,4.83,5.26,11.45,7.47c8.1,2.7,19.38,4.38,31.91,4.38c5.01,0,9.82-0.27,14.31-0.76 C63.51,88.3,63.3,90.4,63.3,92.54L63.3,92.54z"/></g></svg>