<svg id="Layer_1" data-name="Layer 1" xmlns="http://www.w3.org/2000/svg" viewBox="0 0 341.59318 251.81249"><defs><style>.cls-1{fill:#ffba34;}.cls-2{fill:#f7ad60;}.cls-3{fill:#facaaa;}.cls-4{fill:#082233;}.cls-5{fill:#f7af2f;}.cls-6{fill:#dbdbdc;}.cls-7{fill:#dcdcdd;}.cls-8{fill:#051d31;}.cls-9{fill:#772672;}.cls-10{fill:#e9e8e7;}.cls-11{fill:#fdfcfd;}.cls-12{fill:#fcfcfc;}.cls-13{fill:#fcfbfc;}</style></defs><path class="cls-1" d="M703.64473,642.91648l-1.08667.48567a67.48575,67.48575,0,0,0-5.07595-15.33168l-.24317-.50392.00916.00806q-.126-.24347-.25133-.487l.00878.00628a5.66472,5.66472,0,0,0-.23458-.67068,69.26721,69.26721,0,0,0-16.445-21.41091,77.34533,77.34533,0,0,0-12.91378-9.02914,4.77485,4.77485,0,0,0,.48969-.7951,122.34364,122.34364,0,0,1,10.64941-21.60965A128.18216,128.18216,0,0,1,695.12155,552.37c1.62922-1.69246,3.34222-3.31338,5.10763-4.86372,2.86525-2.51622,5.72479-5.05085,8.73286-7.38987a121.86956,121.86956,0,0,1,14.73124-9.71865,125.97446,125.97446,0,0,1,19.63312-8.9864,112.07177,112.07177,0,0,1,23.19857-5.79914c4.28-.5667,8.57614-1.21127,12.88017-1.34962a109.27417,109.27417,0,0,1,19.56125.65614c4.31041.63794,8.67059,1.07227,12.90748,2.03982,5.02423,1.14735,9.93931,2.77171,14.90325,4.18387.87487.24889,1.75743.47092,2.63642.70535a6.88849,6.88849,0,0,1,.58623.40433,118.38254,118.38254,0,0,1,16.3526,16.61645c2.893,3.64838,5.48456,7.53573,8.21162,11.3156a12.737,12.737,0,0,0-8.50189,10.06314c-4.43062-1.8778-8.13776-1.04937-10.44816,2.25518a7.78393,7.78393,0,0,0,6.96094,12.0728c7.66152.01038,15.3233.034,22.98433-.02895a1.69669,1.69669,0,0,1,1.92049,1.38781,125.45094,125.45094,0,0,1,6.99473,32.97293c.08059,1.12441.28017,2.24028.42453,3.36012v2.39772a2.12143,2.12143,0,0,0-.224.64089c-.01561,3.30407-.01247,6.60822-.01373,9.91236a120.61715,120.61715,0,0,1-4.42438,27.32264A125.01677,125.01677,0,0,1,854.25422,687.654c-.17411.26574-.33035.54315-.49486.815q-.22677-.26554-.45375-.53088c.41467-1.004,1.169-2.00163,1.18815-3.01314.11324-5.98177.086-11.967.0416-17.95055a4.67243,4.67243,0,0,0-4.68219-4.62591c-4.50875-.02361-9.01774.00072-13.52662.00516q-.02727-3.10239-.05463-6.20513,6.28842-.013,12.5769-.02525c3.44772-.00472,5.45338-1.96332,5.46091-5.38228q.01818-8.26337.001-16.5268c-.00559-3.47028-1.91484-5.41281-5.39208-5.435-4.1125-.02628-8.22532-.00044-12.338.00281q.00119-3.44754.0024-6.89508,6.29462.00549,12.58922.01c3.38022-.00036,5.33131-1.95163,5.33813-5.36577q.01647-8.271-.004-16.54209a6.67626,6.67626,0,0,0-.16459-1.65747c-.64455-2.46871-2.58984-3.78378-5.54081-3.78392q-43.82346-.002-87.64695-.00027c-.31966,0-.64052-.00843-.95876.01522-2.51419.18686-4.68006,2.10446-4.70757,4.43891q-.10864,9.22765-.0017,18.45721a4.59512,4.59512,0,0,0,4.63255,4.4287c4.43593.02731,8.87223-.00151,13.30828-.007l.14978.49524q-.08817,3.20841-.17629,6.41681c-4.39007-.00363-8.78071-.05192-13.17.00461a4.85158,4.85158,0,0,0-4.98254,5.12176q-.00933,8.559.00053,17.11809a4.93041,4.93041,0,0,0,5.04236,5.085q3.59133.023,7.18268.03613a35.83954,35.83954,0,0,0-8.863,6.28778c-.21039-.44239-.35846-.71829-.47621-1.00656a35.03037,35.03037,0,0,0-8.19867-12.24212c-10.247-9.785-22.39834-13.14715-36.24163-10.24023A29.81788,29.81788,0,0,0,703.64473,642.91648Z" transform="translate(-533.30578 -492.62105)"/><path class="cls-2" d="M874.66121,625.21819c.00126-3.30414-.00188-6.60829.01373-9.91236a2.12143,2.12143,0,0,1,.224-.64089v10.55Z" transform="translate(-533.30578 -492.62105)"/><path class="cls-3" d="M753.06457,492.62105a1.16785,1.16785,0,0,0,.0182.20579l-8.19078-.00013a1.18373,1.18373,0,0,0,.01831-.20566Z" transform="translate(-533.30578 -492.62105)"/><path class="cls-1" d="M695.03038,727.157c.39885-.01309.79771-.03761,1.19655-.03763q57.49368-.00258,114.98738-.00162h1.13489l.10124.30974c-3.20564,1.65373-6.371,3.39177-9.62426,4.94573a122.70347,122.70347,0,0,1-33.82612,10.4893,126.95283,126.95283,0,0,1-33.43051.8503,125.45011,125.45011,0,0,1-30.66779-7.21944,5.16466,5.16466,0,0,1-.52318-.26317c-.31769-.34945-.61616-.71892-.95612-1.04519Q699.233,731.1642,695.03038,727.157Z" transform="translate(-533.30578 -492.62105)"/><path class="cls-4" d="M836.32653,662.35349c4.5089-.00427,9.01789-.0286,13.52664-.005a4.67243,4.67243,0,0,1,4.68219,4.62591c.04438,5.98358.07164,11.96878-.0416,17.95055-.01915,1.01151-.77348,2.00911-1.18836,3.01279-.25587-.30425-.51617-.60438-.76654-.91256A27.676,27.676,0,0,0,832.08342,676.568a28.63269,28.63269,0,0,0-19.99319,6.13479l-.07928-.41474-.01827-.25426-.02-.451-.14453-.7451-.04922-.46122c-.26668-1.44032-.43484-2.90732-.81763-4.31607a31.7681,31.7681,0,0,0-7.9936-13.68529Q819.64709,662.36426,836.32653,662.35349Z" transform="translate(-533.30578 -492.62105)"/><path class="cls-4" d="M802.9677,662.3751a31.76824,31.76824,0,0,1,7.99357,13.68528c.38279,1.40875.55095,2.87575.81763,4.31607a8.65785,8.65785,0,0,1-.63863-1.29674c-3.57724-11.787-11.52061-18.99811-23.40843-21.64418a29.19838,29.19838,0,0,0-20.94226,3.04888c-2.52058,1.39634-4.80173,3.22467-7.27662,4.91391a36.53973,36.53973,0,0,0-23.21374-21.46954c-10.98413-3.5832-21.5859-2.27022-31.81778,3.42713-.2997-1.59053-.56812-3.015-.83661-4.43943a29.81655,29.81655,0,0,1,10.049-3.95963c13.84329-2.90692,25.99459.45527,36.24163,10.24023a35.03037,35.03037,0,0,1,8.19867,12.24212c.11775.28827.26582.56417.47621,1.00656a35.84024,35.84024,0,0,1,8.863-6.28779c.40913-.15265.82307-.29378,1.22678-.45972a31.62032,31.62032,0,0,1,11.868-2.41285,31.943,31.943,0,0,1,13.76888,3.03473A35.64664,35.64664,0,0,1,802.9677,662.3751Z" transform="translate(-533.30578 -492.62105)"/><path class="cls-4" d="M533.38947,685.78947c1.03311-19.96958,15.57282-31.201,32.40039-37.0685,7.94559-67.89089,101.81179-83.44329,130.96306-21.62712-18.24787-31.16944-61.09976-42.86044-92.48523-24.72416-18.40885,10.11539-31.50455,28.907-33.9276,49.85076-25.03454,7.56771-43.19818,33.00437-26.32866,57.16038,4.2991,6.156,13.31489,12.99285,21.82541,14.635,4.55656.87919,279.66053.81053,279.66053.81053l.65148,2.22606s-282.5203.48991-282.44359-.71554C545.75621,721.77788,532.10517,704.54587,533.38947,685.78947Z" transform="translate(-533.30578 -492.62105)"/><line class="cls-4" x1="312.84308" y1="234.43133" x2="312.44091" y2="233.25"/><path class="cls-4" d="M812.09023,682.70275a28.63269,28.63269,0,0,1,19.99319-6.13479,27.676,27.676,0,0,1,20.45544,10.45723c.25037.30818.51067.60831.76654.91256q.22722.2659.454.53123c.82185,1.72272,1.771,3.39739,2.44165,5.177,6.999,18.1014-8.1589,32.24877-10.05216,33.40641l-.65148-2.22606h0a31.79179,31.79179,0,0,0,10.94474-18.479,21.45057,21.45057,0,0,0-4.1432-16.53492c-4.68177-6.14823-11.01359-9.46581-18.64186-10.42942a28.97563,28.97563,0,0,0-19.51476,4.38579c-.59405.371-1.14757.8069-2.05206,1.44817Z" transform="translate(-533.30578 -492.62105)"/><path class="cls-5" d="M695.03038,727.157q4.19755,4.01243,8.39208,8.028c.34.32627.63843.69574.95612,1.04519-3.26214-1.36732-6.57126-2.63429-9.7725-4.13175-2.88186-1.34807-5.64594-2.94793-8.46005-4.44032-.195-.10346-.37413-.23693-.78646-.50114Z" transform="translate(-533.30578 -492.62105)"/><path class="cls-6" d="M811.82812,680.83767l.14453.7451Z" transform="translate(-533.30578 -492.62105)"/><path class="cls-7" d="M696.99677,627.08757q.1255.24354.25133.487Q697.12278,627.331,696.99677,627.08757Z" transform="translate(-533.30578 -492.62105)"/><path class="cls-7" d="M697.23894,627.56655l.24317.50392Q697.3606,627.81853,697.23894,627.56655Z" transform="translate(-533.30578 -492.62105)"/><path class="cls-6" d="M811.99268,682.03375l.01827.25426a1.10417,1.10417,0,0,1-.08889-.17721C811.91679,682.09423,811.96762,682.05992,811.99268,682.03375Z" transform="translate(-533.30578 -492.62105)"/><path class="cls-5" d="M744.892,492.82671l8.19078.00013a124.81884,124.81884,0,0,1,75.27082,28.06488c.37049.29716.70726.63643,1.05983.95608-.87887-.23442-1.76143-.45645-2.6363-.70534-4.96394-1.41216-9.879-3.03652-14.90325-4.18387-4.23689-.96755-8.59707-1.40188-12.90748-2.03982a109.27417,109.27417,0,0,0-19.56125-.65614c-4.304.13835-8.60019.78292-12.88017,1.34962a112.07177,112.07177,0,0,0-23.19857,5.79914,125.97446,125.97446,0,0,0-19.63312,8.9864,121.86956,121.86956,0,0,0-14.73124,9.71865c-3.00807,2.339-5.86761,4.87365-8.73286,7.38987-1.76541,1.55034-3.47841,3.17126-5.10763,4.86372a128.18216,128.18216,0,0,0-16.57022,21.20834A122.34364,122.34364,0,0,0,667.90192,595.188a4.77485,4.77485,0,0,1-.48969.7951,77.56171,77.56171,0,0,0-13.36089-5.38095,59.67982,59.67982,0,0,0-15.01062-2.52791c-3.81084-.06925-7.62631.12291-11.44.18245a2.81217,2.81217,0,0,1-.74687-.20132,126.1095,126.1095,0,0,1,99.71983-93.29672A118.82889,118.82889,0,0,1,744.892,492.82671Z" transform="translate(-533.30578 -492.62105)"/><path class="cls-4" d="M773.42689,621.88053c-4.43614.00535-8.87244.03417-13.30837.00686a4.59512,4.59512,0,0,1-4.63255-4.4287q-.11913-9.22735.0017-18.45721c.02751-2.33445,2.19338-4.25205,4.70757-4.43891.31824-.02365.6391-.01522.95876-.01522q43.82346-.00089,87.64695.00027c2.951.00014,4.89626,1.31521,5.54081,3.78392a6.67626,6.67626,0,0,1,.16459,1.65747q.01716,8.271.004,16.54209c-.00682,3.41414-1.95791,5.36541-5.33813,5.36577q-6.2946.00069-12.58922-.01012-10.366-.01452-20.732-.02689Q794.639,621.86218,773.42689,621.88053Zm-7.33353-5.22226a4.13353,4.13353,0,1,0-3.98588-4.33729A4.07717,4.07717,0,0,0,766.09336,616.65827Zm12.40038-.01555a4.1246,4.1246,0,1,0-3.98755-4.22218A4.08278,4.08278,0,0,0,778.49374,616.64272Z" transform="translate(-533.30578 -492.62105)"/><path class="cls-4" d="M794.3369,656.32013A31.943,31.943,0,0,0,780.568,653.2854a31.62032,31.62032,0,0,0-11.868,2.41285c-.40371.16594-.81765.30707-1.22678.45972q-3.5913-.0177-7.18265-.03612a4.93041,4.93041,0,0,1-5.04236-5.085q-.01189-8.559-.00053-17.11809a4.85158,4.85158,0,0,1,4.98254-5.12176c4.38929-.05653,8.77993-.00824,13.17018-.00455l.3005.01218q25.81094.00257,51.62188.00376c3.75258-.00028,7.50519-.0172,11.25776-.02645,4.11271-.00325,8.22553-.02909,12.338-.00281,3.47724.02223,5.38649,1.96476,5.39208,5.435q.0133,8.26338-.001,16.5268c-.00753,3.419-2.01319,5.37756-5.46091,5.38228q-6.28846.00864-12.57687.02518-20.39211-.00242-40.78437.00264A7.78812,7.78812,0,0,0,794.3369,656.32013Zm-10.65136-8.81674a4.1593,4.1593,0,1,0-8.31752-.13143,4.15928,4.15928,0,0,0,8.31752.13143Zm-12.44619-.043a4.14452,4.14452,0,1,0-4.0999,4.1303A4.15238,4.15238,0,0,0,771.23935,647.46044Z" transform="translate(-533.30578 -492.62105)"/><path class="cls-8" d="M836.58061,628.782c-3.75257.00925-7.50518.02617-11.25776.02645q-25.81094.00195-51.622-.00368-.06223-3.21449-.12427-6.42913l-.14978-.49524q21.21218-.011,42.4242-.02051,10.366-.00114,20.732.02687Q836.5818,625.33453,836.58061,628.782Z" transform="translate(-533.30578 -492.62105)"/><path class="cls-8" d="M794.3369,656.32013a7.78812,7.78812,0,0,1,1.15068-.169q20.3922-.01091,40.7844-.00264.02723,3.10276.05457,6.2052-16.67944.01054-33.35888.02143A35.64613,35.64613,0,0,0,794.3369,656.32013Z" transform="translate(-533.30578 -492.62105)"/><path class="cls-4" d="M865.54436,552.08536c-1.574-.161-3.14688-.44469-4.72238-.46052a12.65065,12.65065,0,0,0-11.7256,8.42759c-.27722.82022-.50332,1.65769-.742,2.45066-1.30944-.29-2.59681-.658-3.90988-.85025-3.96843-.581-8.29052,3.098-8.38233,7.12982-.02427,1.06373.14357,2.13183.22317,3.19789a7.62821,7.62821,0,0,1-.67136-9.478c2.3104-3.30455,6.01754-4.133,10.44816-2.25518a12.737,12.737,0,0,1,8.50189-10.06314,5.11866,5.11866,0,0,0,1.11476.01612,12.6797,12.6797,0,0,1,9.26041,1.35456,4.233,4.233,0,0,1,.60755.529Z" transform="translate(-533.30578 -492.62105)"/><path class="cls-9" d="M773.57658,622.37561q.06208,3.2146.12427,6.42913l-.30038-.01227Q773.48834,625.584,773.57658,622.37561Z" transform="translate(-533.30578 -492.62105)"/><path class="cls-10" d="M865.54671,552.08384l.10311.05712-.10546-.05562Z" transform="translate(-533.30578 -492.62105)"/><path class="cls-11" d="M766.09336,616.65827a4.13356,4.13356,0,1,1,4.26843-3.92693A4.09473,4.09473,0,0,1,766.09336,616.65827Z" transform="translate(-533.30578 -492.62105)"/><path class="cls-12" d="M778.49374,616.64272a4.12458,4.12458,0,1,1,4.31049-4.01137A4.09832,4.09832,0,0,1,778.49374,616.64272Z" transform="translate(-533.30578 -492.62105)"/><path class="cls-13" d="M783.68554,647.50339a4.1593,4.1593,0,1,1-4.16128-4.23656A4.22346,4.22346,0,0,1,783.68554,647.50339Z" transform="translate(-533.30578 -492.62105)"/><path class="cls-13" d="M771.23935,647.46044a4.14452,4.14452,0,1,1-8.2889-.04572,4.14459,4.14459,0,1,1,8.2889.04572Z" transform="translate(-533.30578 -492.62105)"/></svg>