<svg id="Layer_1" data-name="Layer 1" xmlns="http://www.w3.org/2000/svg" xmlns:xlink="http://www.w3.org/1999/xlink" viewBox="0 0 2269.30813 575.59794"><defs><style>.cls-1{fill:none;}.cls-2{clip-path:url(#clip-path);}.cls-3{fill:#003087;}.cls-4{fill:#009cde;}.cls-5{fill:#012169;}</style><clipPath id="clip-path" transform="translate(-89.84676 -102.95439)"><rect class="cls-1" x="-1356.77379" y="-450.30552" width="5191.23963" height="1686.32104"/></clipPath></defs><g class="cls-2"><path class="cls-3" d="M505.16249,146.35672c-26.65276-30.37844-74.83156-43.40233-136.46407-43.40233H189.81918A25.61785,25.61785,0,0,0,164.50382,124.56L90.05439,596.97a15.34847,15.34847,0,0,0,15.1733,17.73668H215.66l27.73543-175.91783-.85977,5.50889a25.53826,25.53826,0,0,1,25.20391-21.60563h52.47761c103.0924,0,183.81494-41.87384,207.39483-163.00539q1.0508-5.3735,1.831-10.47643c7.00548-44.77156-.04774-75.24554-24.2645-102.83765" transform="translate(-89.84676 -102.95439)"/><path class="cls-4" d="M1857.098,371.15384c-6.75082,44.32576-40.60015,44.32576-73.335,44.32576h-18.62825l13.07163-82.76051a10.284,10.284,0,0,1,10.158-8.67728h8.54994c22.29028,0,43.33862,0,54.19714,12.68954,6.48006,7.59459,8.43843,18.86709,5.98652,34.42252m-14.24979-115.65455H1719.36027A17.19532,17.19532,0,0,0,1702.3878,269.988l-49.89835,316.633a10.3012,10.3012,0,0,0,10.158,11.89343h63.368a12.012,12.012,0,0,0,11.86165-10.12613l14.17022-89.79786a17.16246,17.16246,0,0,1,16.94063-14.48865h39.07166c81.35942,0,128.29629-39.3423,140.556-117.37408,5.5248-34.10409.2229-60.91607-15.74644-79.68766-17.56148-20.63442-48.68825-31.5566-90.00484-31.5566" transform="translate(-89.84676 -102.95439)"/><path class="cls-3" d="M976.31472,371.15384C969.564,415.4796,935.71463,415.4796,902.9639,415.4796H884.33565l13.07162-82.76051a10.2839,10.2839,0,0,1,10.158-8.67728h8.54988c22.29027,0,43.33861,0,54.19714,12.68954,6.496,7.59459,8.45434,18.86709,6.00243,34.42252M962.06487,255.49932h-123.488A17.17685,17.17685,0,0,0,821.62039,269.988L771.70612,586.621a10.28533,10.28533,0,0,0,10.158,11.89343h58.9736a17.16041,17.16041,0,0,0,16.94058-14.48866l13.4856-85.41941a17.14813,17.14813,0,0,1,16.94058-14.48866h39.0716c81.35936,0,128.29634-39.35821,140.55593-117.39,5.52479-34.10409.2229-60.91607-15.74645-79.68766-17.56148-20.63442-48.68825-31.5566-90.00484-31.5566m286.68452,229.35072c-5.73179,33.78565-32.52783,56.474-66.7434,56.474-17.14762,0-30.888-5.5248-39.70854-15.96937-8.75693-10.349-12.03668-25.10837-9.26638-41.52355,5.31781-33.49906,32.57556-56.90381,66.26576-56.90381,16.7973,0,30.41033,5.57257,39.42187,16.11265,9.05939,10.61971,12.62582,25.45864,10.03056,41.81013m82.41028-115.11321h-59.1328a10.3013,10.3013,0,0,0-10.18982,8.70914l-2.57934,16.52663-4.13965-5.98652c-12.801-18.58051-41.34841-24.80587-69.8481-24.80587-65.3263,0-121.13161,49.51621-131.99013,118.93439-5.65223,34.66134,2.37235,67.76236,22.01963,90.8646,18.03923,21.22351,43.78442,30.06,74.46538,30.06,52.66866,0,81.86888-33.8175,81.86888-33.8175l-2.643,16.43109a10.28539,10.28539,0,0,0,10.17391,11.89343h53.24188a17.16248,17.16248,0,0,0,16.95655-14.48865l31.97064-202.41141a10.30126,10.30126,0,0,0-10.18982-11.89343" transform="translate(-89.84676 -102.95439)"/><path class="cls-4" d="M2129.54838,484.83413c-5.73179,33.78565-32.52783,56.474-66.7434,56.474-17.1475,0-30.888-5.5248-39.70854-15.96937-8.75693-10.349-12.03668-25.10837-9.26639-41.52355,5.31782-33.49906,32.55966-56.90381,66.26577-56.90381,16.79718,0,30.41033,5.57257,39.42187,16.11265,9.05939,10.61971,12.62582,25.45864,10.03069,41.81013m82.41015-115.11321h-59.13292a10.30121,10.30121,0,0,0-10.18982,8.70914l-2.57934,16.52663-4.13953-5.98652c-12.801-18.58051-41.34841-24.80587-69.848-24.80587-65.31039,0-121.1157,49.51621-131.99013,118.93439-5.65223,34.66134,2.38826,67.76236,22.03554,90.8646,18.03923,21.22351,43.78442,30.06,74.46527,30.06,52.68468,0,81.8849-33.8175,81.8849-33.8175l-2.643,16.43109a10.25358,10.25358,0,0,0,10.142,11.89343h53.226a17.191,17.191,0,0,0,16.97234-14.48865l31.97051-202.41141a10.30136,10.30136,0,0,0-10.18982-11.89343" transform="translate(-89.84676 -102.95439)"/><path class="cls-3" d="M1646.12078,369.73684h-59.4513a17.09043,17.09043,0,0,0-14.17022,7.53091L1490.503,498.01721l-34.75684-116.03667a17.19535,17.19535,0,0,0-16.447-12.25965h-58.41636a10.3014,10.3014,0,0,0-9.744,13.62891l65.43781,192.11011-61.55289,86.85236a10.30125,10.30125,0,0,0,8.40661,16.24H1442.818a17.19093,17.19093,0,0,0,14.09066-7.3717l197.65084-285.28335a10.28534,10.28534,0,0,0-8.43843-16.16042" transform="translate(-89.84676 -102.95439)"/><path class="cls-4" d="M2281.64762,264.2084l-50.69448,322.42844a10.30132,10.30132,0,0,0,10.174,11.89343h50.96512a17.177,17.177,0,0,0,16.95655-14.48866l49.978-316.64894a10.28517,10.28517,0,0,0-10.174-11.89347h-57.03121a10.26954,10.26954,0,0,0-10.174,8.69322" transform="translate(-89.84676 -102.95439)"/><path class="cls-3" d="M505.16249,146.35672c-26.65276-30.37844-74.83156-43.40233-136.46407-43.40233H189.81918A25.61785,25.61785,0,0,0,164.50382,124.56L90.05439,596.97a15.34847,15.34847,0,0,0,15.1733,17.73668H215.66l27.73543-175.91783-.85977,5.50889a25.53826,25.53826,0,0,1,25.20391-21.60563h52.47761c103.0924,0,183.81494-41.87384,207.39483-163.00539q1.0508-5.3735,1.831-10.47643c7.00548-44.77156-.04774-75.24554-24.2645-102.83765" transform="translate(-89.84676 -102.95439)"/><path class="cls-3" d="M273.18472,249.79936a22.41764,22.41764,0,0,1,22.11511-18.899H435.53735a294.83094,294.83094,0,0,1,46.25228,3.34352,194.34074,194.34074,0,0,1,22.92712,5.12674,126.68889,126.68889,0,0,1,24.69439,9.83955c7.03737-44.78747-.03182-75.24548-24.24859-102.85356-26.66867-30.36253-74.83156-43.38635-136.46407-43.38635H189.80326a25.61785,25.61785,0,0,0-25.28351,21.60559L90.03847,596.93815a15.34848,15.34848,0,0,0,15.15738,17.75259H215.644L243.37947,438.757Z" transform="translate(-89.84676 -102.95439)"/><path class="cls-4" d="M529.42705,249.19437q-.81975,5.25453-1.831,10.47643C504.01616,380.78647,423.29359,422.67619,320.20118,422.67619H267.70763a25.50645,25.50645,0,0,0-25.188,21.60563L215.644,614.67484l-7.64237,48.338a13.43782,13.43782,0,0,0,13.27862,15.53949h93.09362a22.41046,22.41046,0,0,0,22.11511-18.899l.90752-4.74465,17.5456-111.1965,1.1145-6.14573a22.40172,22.40172,0,0,1,22.131-18.899H392.119c90.18,0,160.79232-36.61969,181.42674-142.59393,8.59769-44.26208,4.13959-81.248-18.62825-107.21612A88.906,88.906,0,0,0,529.427,249.19431" transform="translate(-89.84676 -102.95439)"/><path class="cls-5" d="M504.7326,239.37073q-5.39746-1.60016-11.12919-2.86589c-3.82118-.84387-7.76976-1.59214-11.81384-2.229a289.1569,289.1569,0,0,0-46.26819-3.39132H295.2998a22.35394,22.35394,0,0,0-22.11511,18.91486L243.37945,438.78881l-.85976,5.493a25.50643,25.50643,0,0,1,25.188-21.60563h52.49352c103.09241,0,183.815-41.87384,207.39486-163.00539.70053-3.58234,1.28967-7.05328,1.831-10.47643a127.34461,127.34461,0,0,0-19.39249-8.18371c-1.73547-.57316-3.50277-1.1145-5.3019-1.65584" transform="translate(-89.84676 -102.95439)"/></g></svg>