<svg id="Layer_1" data-name="Layer 1" xmlns="http://www.w3.org/2000/svg" viewBox="0 0 1643.17841 1106.11716"><defs><style>.cls-1{fill:#1d5b99;}.cls-2{fill:#fff;}.cls-3{fill:#e7a83a;}</style></defs><path class="cls-1" d="M1813.98307,1315.00446H198.72258V208.8873H1841.901V1315.00446h-27.91792Z" transform="translate(-198.72258 -208.8873)"/><path class="cls-2" d="M1813.98307,1287.0864H226.64057V236.80529h1587.3425Z" transform="translate(-198.72258 -208.8873)"/><path class="cls-1" d="M800.34307,932.51114l103.089-339.90568H995.4137L892.31535,932.51114ZM759.22346,592.6989l-82.7442,144.09649c-21.05535,37.74447-33.37817,56.80838-39.29648,80.64054H635.9206c1.46791-30.218-2.74878-67.34539-3.14146-88.32592L623.6352,592.6989H468.80534l-1.58007,9.14391c39.77333,0,63.36243,19.98016,69.85108,60.85675L567.257,932.51114h95.29142L855.23483,592.6989Zm715.3026,339.81224-2.53371-50.54407-114.84152-.09352-23.505,50.63759h-99.854L1414.866,593.25058h122.56421l30.65749,339.26056h-93.56162Zm-10.537-200.50277c-1.03773-25.12241-1.87931-59.21119-.187-79.85517h-1.35573c-5.59115,16.87608-29.63831,67.551-40.21271,92.46781l-34.21967,74.49786h80.64054ZM1091.97668,942.16928c-64.93316,0-108.03495-20.59726-138.79524-38.96924l43.81233-66.90592c27.62817,15.44559,49.31,33.27531,99.21825,33.27531,16.03458,0,31.49893-4.16059,40.28753-19.37242,12.78091-22.09316-2.9545-34.00461-38.87573-54.34l-17.74562-11.53745c-53.26481-36.38873-76.31168-70.96371-51.236-131.30616,16.05334-38.59525,58.36035-67.85963,128.19274-67.85963,48.13191,0,93.28121,20.83094,119.5724,41.17575l-50.36645,59.071c-25.6741-20.75618-46.94445-31.25583-71.29092-31.25583-19.40979,0-34.16353,7.48908-39.25906,17.58662-9.58338,18.97974,3.10408,31.91965,31.09683,49.29127l21.09273,13.426c64.68072,40.79242,80.07024,83.55759,63.87666,123.52727-27.8993,68.8413-82.4824,84.19337-139.5806,84.19337ZM1595.4729,638.671H1591.49v-24.253h9.2c5.8622,0,8.83546,2.04758,8.83546,6.97484,0,4.39434-2.68336,6.21751-6.3203,6.61954l6.79723,10.65857h-4.50647l-6.26424-10.3594h-3.75848V638.671Zm4.4504-13.772c2.992,0,5.62852-.28982,5.62852-3.80527,0-2.92647-2.8704-3.2817-5.25446-3.2817h-4.82446v7.087h4.4504Zm-.11213,23.14966c-12.60337,0-21.56966-9.4338-21.56966-21.91554,0-13.1736,9.948-21.9062,21.56966-21.9062,11.472,0,21.43869,8.73253,21.43869,21.9062C1621.24986,639.31615,1611.28321,648.04868,1599.81117,648.04868Zm0-40.01639c-9.49929,0-16.876,7.44228-16.876,18.10085,0,9.95737,6.44185,18.10085,16.876,18.10085,9.36831,0,16.74518-7.38622,16.74518-18.10085C1616.55635,615.47457,1609.17948,608.03229,1599.81117,608.03229Z" transform="translate(-198.72258 -208.8873)"/><path class="cls-3" d="M1774.90155,1038.0778H268.51755v201.54985h1506.384V1038.0778Z" transform="translate(-198.72258 -208.8873)"/><path class="cls-1" d="M1772.10605,287.05954H265.73136V488.61881H1772.10605Zm-34.42539,938.23523h-3.9829v-24.25288h9.2c5.8622,0,8.83546,2.04751,8.83546,6.97484,0,4.38492-2.68336,6.20817-6.3203,6.61019l6.79723,10.668h-4.50647l-6.26423-10.36868h-3.75849v10.36868Zm4.45982-13.77207c2.992,0,5.62852-.2899,5.62852-3.8147,0-2.91705-2.8704-3.27242-5.25446-3.27242h-4.82447v7.087h4.45041Zm-.11214,23.14038c-12.60336,0-21.56965-9.42438-21.56965-21.91547,0-13.16432,9.96665-21.89678,21.56965-21.89678,11.49073,0,21.43869,8.7326,21.43869,21.89678C1763.467,1225.93062,1753.51907,1234.66308,1742.02834,1234.66308Zm0-40.01639c-9.49928,0-16.876,7.45162-16.876,18.10092,0,9.96665,6.44185,18.10092,16.876,18.10092,9.36832,0,16.74519-7.37687,16.74519-18.10092C1758.77353,1202.09831,1751.39666,1194.64669,1742.02834,1194.64669Z" transform="translate(-198.72258 -208.8873)"/></svg>